<?xml version="1.0" encoding="UTF-8"?>
<svg id="_圖層_1" data-name=" 圖層 1" xmlns="http://www.w3.org/2000/svg" xmlns:xlink="http://www.w3.org/1999/xlink" version="1.1" viewBox="0 0 1920 960">
  <defs>
    <style>
      .cls-1 {
        fill: #a3cc35;
      }

      .cls-1, .cls-2, .cls-3 {
        stroke-width: 0px;
      }

      .cls-4 {
        fill: none;
        stroke: #a0ff1f;
        stroke-linecap: round;
        stroke-width: 8px;
      }

      .cls-5, .cls-2 {
        isolation: isolate;
      }

      .cls-2 {
        fill: #d1deba;
      }

      .cls-3 {
        fill: #fff;
      }
    </style>
  </defs>
  <g>
    <path class="cls-1" d="M962.4,179.9c1.7-.2,4.2-.7,5,1.5.6,6.1-.6,12.3-.3,18.4.5,7.9.7,15.9.6,23.8,4.1,3.6,2.9,10,3.3,15,2.3.5,5.1,1.3,6.2,3.9,1.4,3.3.8,7.1.9,10.6-.2,8.6.6,17.4-1.2,25.9,3.8,5.5,9.1,10.2,11.2,16.9,2.8,2.7,6.7,5.2,6.8,9.7,3.4.8,6.9,1.4,10.3,2.7,1.1.3,2.3,1.6,1.8,3-3.1,14.2-6.7,28.4-10,42.6,3.7,1,7.4,1.6,11,2.6,1.5.5,2.2,2.4,1.7,4-3.4,14.1-6.4,28.4-10.2,42.3,3.2.9,6.5,1,9.7,2.2,1.8.7,1.4,3,1,4.5-3.5,14.3-6.3,28.7-9.6,43.1,2.8,0,5.6.2,8.3,1,2.4,1.9,1.3,5.3.7,7.8-3.1,13.1-5.4,26.4-8.4,39.5,2.7.8,6.3,0,8.4,2.4.3,4.2-1.3,8.4-2,12.5-2.8,11.1-4.7,22.5-7.6,33.6,2.3.3,4.7.7,7,1.2,1.2.2,2.6,1,2.9,2.4-.8,5.1-2.2,10-3.3,15-2.5,9.8-4.3,19.8-6.6,29.8,2.4.4,4.8.6,7.2.9,2,.5,3.1,2.8,2.4,4.9-3.2,14.4-5.6,28.9-8.2,43.4,2.7.9,6.3.2,8.2,3,1,2.5-.3,5.3-.8,7.8-2.8,12.1-4.5,24.4-7.4,36.5,1.5.6,3.7,1.7,3.2,3.9-.2,4.1.6,8,1.1,12,5,35.8,9.8,71.7,14.7,107.5.4,1.6-.4,3.8-2.2,3.6-16.5.2-33,0-49.4,0-5.4.4-10.8-.2-16.3,0h-35.8c-2.6,0-5.2.4-7.7-.5-.9-.8-1.1-2.2-.8-3.4,5.2-38.2,10.4-76.3,15.7-114.5.2-1.9,0-3.8,0-5.8.3-1.7,1.9-2.5,3.2-3.1-3-13.8-5.2-27.9-8.5-41.6-.6-1.8.7-3.5,2.1-4.2,2-.8,4.2-.9,6.3-1.2-.9-7.8-2.8-15.3-4-23-1.1-7.1-2.9-14-4.2-21.1-.5-1.9.5-4,2.3-4.4,2.4-.3,4.8-.5,7.2-.9-2.8-14.2-6.1-28.3-9.5-42.3-.4-1.5-.6-3.6,1-4.3,2.7-1.2,5.6-1.2,8.3-1.8-2.3-8.9-4-17.9-6-26.9-1.3-6.1-3.2-12.2-3.7-18.5.2-.9.7-1.6,1.5-1.9,2.3-.5,4.7-.9,7-1.2-2.8-13.4-5.4-26.9-8.5-40.3-.5-2.3-1.3-5.3.8-7,2.8-.9,5.7-.9,8.5-1.2-3.5-14.3-6.2-28.9-9.7-43.2-.6-1.6-.4-3.9,1.3-4.4,3-1,6.3-1.3,9.4-2-3.9-14-6.8-28.3-10.2-42.4-.6-1.7.3-3.6,1.9-4,3.6-1,7.2-1.7,10.8-2.5-3.4-13.9-6.8-27.8-9.9-41.8-.4-1.2-.2-2.9,1-3.5,3.5-1.5,7.2-2.1,10.8-3,.6-4.3,4-7.1,7-9.5,2-6.9,7.4-11.7,11.3-17.3-.3-.6-.5-1.3-.7-1.9-.8-10.8-1.1-21.6-.3-32.4.4-3.6,3.8-5.4,6.7-5.9.6-5-.6-11.3,3.3-14.9,0-12.7,1.3-25.4.3-38.1,0-1.9-.2-4.4,1.4-5.7h.3ZM962.6,228.9c-.6,3.2-.8,6.5-.7,9.7h4.8c0-3.5.5-7.1-.8-10.4-.9-1.2-3-1-3.3.6h0ZM954.8,246.9c-.4,9.6,0,19.2.7,28.8,5.9-.1,11.8-.3,17.7,0,.9-9.9.7-19.8.6-29.8,0-2.3-2.6-2.8-4.3-2.8-4.1-.1-8.3-.4-12.3.3-1.5.3-2.3,1.8-2.3,3.4h-.1ZM954.7,282.4c-3,4.1-6.2,8.1-9.1,12.4,3.1-1.1,6.4-.5,9.6-.9,9.1-1.1,18.2.1,27.4.4-2.6-4.6-6.2-8.5-9.2-12.8-1.2-1.9-3.5-1.4-5.2-1.5-3.5.2-7-.1-10.5,0-1.3,0-2.2,1.2-3,2.3h0ZM946.2,299.2c-3.4,0-5.8,3-7.8,5.6,17.1-3.5,34.8-3.6,52,0-1.7-2.1-3.4-4.4-5.9-5.3-4.7-1.1-9.6-.7-14.4-1.4-8-.4-15.9.3-23.9,1h0ZM961.8,307.1c0,14.4-.4,28.9-.2,43.3h5.3c-.2-14.5,0-28.9,0-43.4h-5ZM971.5,307.2v13.4c.5,10.1,0,20.2.2,30.3,7,0,14,1.3,20.9,2.3,3.2-13.7,6.8-27.2,10-40.9-3.1-1.1-6.3-1.5-9.5-2.3-.8,2.8-1.8,6.1-4.5,7.4-2.8,1.3-6.6.7-8.5-2.1-1.5-2.1-1.9-4.8-1.8-7.4-2.3-.4-4.6-.6-6.9-.7h0ZM950.2,308c0,2.4,0,4.9-1.4,7-2.4,4-8.5,4.2-11.1.4-1.2-1.5-1.5-3.4-2.1-5.2-3.2.4-6.4,1.1-9.5,2.1,3.1,13.6,6.8,27.1,9.8,40.8,7-.8,14-2.3,21.1-2.1.2-14.6,0-29.1,0-43.7-2.3,0-4.6.2-6.9.7h.1ZM939.8,309.5c.6,1.3.9,3.2,2.3,3.7.9.6,2-.3,3-.5.5-1.4.9-2.8,1-4.2-2.1.1-4.2.5-6.3,1ZM982.7,308.5c0,2,.4,4.4,2.5,4.9,2.2.5,3.1-2.2,3.7-3.9-2.1-.5-4.2-.8-6.2-1ZM948.3,356.4c0,2.3,0,4.9-1.4,6.8-1.9,3.5-6.5,4.8-9.7,2.6-2.4-1.5-3.6-4.5-3.8-7.4-3.4.6-6.8,1.2-10.1,2.1,3.5,13.8,6.4,27.7,10.4,41.3,7.7-1.2,15.4-2,23.2-2.5,0-14.6,0-29.1,0-43.7-2.9.1-5.8.6-8.7.8h0ZM961.7,355.5v43.6h5.8c0-14.5-.2-28.9-.3-43.4-1.8-.2-3.6-.2-5.4-.1h0ZM971.7,355.7v43.6c7.8.6,15.6,1.3,23.4,2.6,4-13.6,7-27.5,10.3-41.3-3.4-1-6.8-1.5-10.2-2.1,0,3.7-2.2,7.4-5.5,8.3-1.7.2-3.6.4-5.1-.7-3.2-1.8-4.5-5.9-4.3-9.6-2.9-.2-5.7-.8-8.6-.7h0ZM937.5,357.7c.2,2,1.2,4.5,3.3,4.5,2.4-.4,3.2-3.2,3.3-5.4-2.2.3-4.4.7-6.7.9h.1ZM984.5,357c.2,2.2,1,4.9,3.3,5.4,2.1-.1,3.3-2.5,3.2-4.6-2.2-.2-4.3-.6-6.5-.8ZM961.4,404.3c-.2,15-.2,30-.2,45,2,.2,4.1.2,6.2,0v-45.1h-6ZM947.7,404.8c-.2,1.9,0,4.1-1.3,5.7-2.2,3.7-7.4,4.4-10.5,1.6-1.6-1.3-2.2-3.4-2.5-5.4-3.6.9-7.2,1.2-10.8,2.1,2,7.5,3.6,15,5.3,22.6,1.6,6.8,2.8,13.6,4.9,20.3,8-1.2,16-1.8,24.1-2v-45.1c-3.1-.2-6.2,0-9.2.2h0ZM971.7,404.5c0,15.1.4,30.2.4,45.3,8,.1,16,.9,24,1.9,3.7-14.2,6.5-28.6,10-42.8-3.6-.8-7.2-1.3-10.8-2,0,5.9-6.8,9.1-11,5.8-2.5-1.6-3.3-4.8-3.3-7.8-3.1-.2-6.1-.3-9.2-.4h-.1ZM937.5,406.1c.3.8.6,1.7.9,2.5,1,.3,2.2,1,3.2.2,1.5-.4,1.4-2.2,1.8-3.5-2,.2-3.9.5-5.9.7h0ZM985.2,405.4c.4,1.4.7,3.2,2.2,3.7,1.8.9,3.7-1,3.7-3-2-.2-3.9-.5-5.9-.7ZM947.5,455c-.6,3.1-1.9,6.6-4.7,7.9-4.1,1.9-9.3-1.6-9.4-6.5-3.6.4-7.1,1-10.7,1.1,0,2.3.8,4.5,1.2,6.7,2.9,12,5.1,24.2,8,36.2,4.7-.5,9.4-.8,14.1-1.4,3.4-.4,6.9,0,10.3-.6.2-14.6.2-29.2.5-43.9-3.1,0-6.2.5-9.3.5h0ZM961.3,454.7v43.6h6.3c0-14.6-.2-29.1-.3-43.6h-6ZM972.2,454.5c0,14.6-.2,29.3,0,44,4.3.6,8.6.2,12.9.9,3.9.3,7.8.7,11.7,1.1,2.2-8.4,3.7-16.9,5.6-25.4,1.2-5.8,2.7-11.6,3.8-17.4-3.7-.3-7.3-.9-11-1.2,0,5.6-6.7,9.1-10.7,5.6-2.1-1.6-2.7-4.5-3.5-7-3,0-6-.5-8.9-.6h.1ZM985.7,455.1c.4,1.4.9,3.6,2.6,3.5,1.5.2,2.6-1.3,2.7-2.8-1.8,0-3.6-.4-5.4-.7h.1ZM937.5,455.8c.4,1.3,1.2,2.9,2.7,2.8,1.8.4,2.3-1.9,2.8-3.3-1.9.1-3.7.4-5.5.5ZM947.3,503.7c.2,2.5,0,5.1-1.7,7-1.8,2.3-4.9,2.7-7.4,1.8-2.7-1.3-3.9-4.6-4.3-7.6-3.6.3-7.2.7-10.8,1.3,1.2,6.2,3,12.3,4.3,18.5,1.8,8,3.4,16,5.6,23.9,7.7-.9,15.4-2.1,23.1-2.3.3-14.4.3-28.7.2-43.1-3,.2-6.1.2-9.1.4h.1ZM961.2,503.4c-.5,14.2,0,28.4-.2,42.7h6.7c0-14.2-.3-28.5-.2-42.7-2.1.5-4.2.5-6.3,0h0ZM972.1,503.3c.6,14.4,0,28.7.3,43.1,7.8,0,15.6,1.6,23.4,2.2,2.1-8.2,3.8-16.5,5.7-24.7,1.3-5.9,3.1-11.7,4-17.7-3.5-.6-7.1-1-10.7-1.3-.3,2.9-1.5,5.9-3.9,7.4-2.6,1.2-6,.7-7.9-1.7-1.6-1.9-1.6-4.6-1.6-7-3.1-.1-6.2-.2-9.3-.4h0ZM938.3,504.4c.2,1.3.3,2.8,1.5,3.6.9.8,2.2,0,3-.6,0-1,.3-2.1.4-3.1h-4.9ZM985.8,504.3v2.8c.8.9,1.9,1.7,3,1.1,1-.9,1.5-2.3,1.7-3.6-1.6-.2-3.1-.3-4.7-.3ZM947.7,551.9c.5,4.3-1.2,9.6-5.5,10.6-4.8,1.2-8.5-4.3-8.6-9.1-3.4.5-6.8,1.1-10.2,1.4,1.3,6,3,11.9,4.4,17.9,1.9,8.2,3.7,16.4,5.5,24.6,7.7-.3,15.3-1.7,23-1.8v-44.3c-2.9,0-5.7.5-8.6.7h0ZM961,551c0,14.8-.2,29.5-.3,44.3,2.4-.2,4.8-.2,7.2,0,0-14.8.2-29.6-.2-44.3h-6.7ZM972.3,551.2v44.3c7.1,0,14.1,1.2,21.2,1.7.7,0,2.1.5,2.2-.8,1.8-8.3,3.6-16.6,5.5-24.8,1.2-5.7,3-11.2,4-16.9-3.3-.3-6.7-.9-10-1.5-.5,2.9-1.3,6-3.6,7.8-2.5,2.3-6.5,1.8-8.6-.9-2.1-2.2-2.3-5.5-2.2-8.4-2.9,0-5.8-.7-8.6-.6h0ZM937.8,552.9c0,2.1,1,4.6,3.1,5,2.3-.5,2.4-3.5,2.6-5.5-1.9,0-3.8.3-5.7.5h0ZM985.2,552.5c.2,2,.3,4.7,2.4,5.3,2.3,0,3.1-3,3.2-5-1.9-.2-3.8-.3-5.7-.3h0ZM960.6,600.5v42.5c2.5,0,4.9,0,7.4,0v-42.5h-7.4ZM947.3,605.7c-1.6,3.7-6.3,5.6-9.6,3.5-2.2-1.5-3.3-4.3-3.6-7-3.7,0-7.3.7-10.9.9,3.2,14.3,5.9,28.7,8.4,43.1,8.1-.8,16.3-2,24.4-3,.2-14.3.2-28.7,0-43-2.5.3-5,.4-7.5.6-.6,1.5-.5,3.3-1.3,4.8h0ZM972.5,600.3c0,14.3.2,28.7.2,43,8.1.9,16.2,2,24.3,3,1-7.7,2.8-15.2,4.2-22.9,1.2-6.7,2.7-13.3,4.1-20l-.3-.4c-3.5-.5-7.1-1-10.6-.9,0,2.2-.9,4.5-2.5,6-2,2.3-5.4,2.3-7.8.7-2.7-1.5-3.7-5-4-8.1-2.6,0-5.1-.4-7.7-.5h0ZM938.3,601.7c.3,1.7,1.1,3.1,2.5,3.9,2-.5,2.9-2.4,3.4-4.4-2,.2-3.9.3-5.9.5ZM984.5,601.1c.4,2,1.3,3.9,3.2,4.5,1.5-.7,2.3-2.3,2.6-4-2,0-3.9-.2-5.8-.5ZM960.6,648.1c0,15.2,0,30.3-.2,45.5,2.6-.5,5.2-.5,7.8,0,0-15.1,0-30.3-.2-45.4h-7.4,0ZM948.8,649.2c-.4,2.9-.9,6.1-3.1,8.1-1.8,2.2-4.9,2.5-7.3,1.5-2.8-1.4-4.6-4.6-4.5-7.9-3.5.5-7,.9-10.5,1.5,0,.2-.2.6-.3.8,3.3,13.5,5.4,27.3,8.7,40.8.9.3,1.8.6,2.7,1,3.1-4.2,8.9-4.8,13-2.1,2.7.5,5.4.4,8.1.8.2-15.1,0-30.3.3-45.4-2.4,0-4.8.4-7.2.8h0ZM972.8,648.4c0,15.1-.2,30.2.2,45.3,2.3,0,4.5-.3,6.8-.5,1.9,0,3.4-1.8,5.4-1.8,3.4-.6,6.8.9,9,3.7.9-.4,1.8-.7,2.7-1,3.1-13.8,5.4-27.8,8.8-41.6-3.5-.6-7.1-1.2-10.7-1.5-.3,2-.8,4.3-2.2,5.8-2.4,3.2-7.3,3.5-10,.4-2.1-2-2.6-5.2-3.1-8.1-2.4-.4-4.7-.7-7.1-.8h.2ZM938.4,650.2c-.8,2.2,1,4.6,3,4.5,1.9-.7,2.7-3,2.9-5-2,0-3.9.3-5.9.4h0ZM984.4,649.7c.2,2.1,1.1,4.8,3.4,5.1,1.9-.4,2.9-2.5,3-4.4-2.1-.3-4.2-.5-6.4-.7h0ZM940.6,696.6c-1.2.4-2.2,1.3-2.8,2.5-2,3.1.2,7.9,3.6,8.3,3,.6,6-2.3,5.7-5.6.2-3.5-3.5-6.3-6.5-5.2ZM984.9,696.7c-1.6.7-3,2.3-3.3,4.3-.7,3.4,2.4,7,5.5,6.5,2.6-.2,4.5-2.9,4.5-5.7.2-3.7-3.7-6.5-6.7-5.1ZM951.2,698.2c.2,1.1.5,2.2.7,3.3,8.3.4,16.7.3,25,0,0-1.1.2-2.2.3-3.3h-26ZM928,698.9c.2.9.4,1.9.5,2.8h3.7c0-1,.2-1.9.4-2.8h-4.7,0ZM996,698.9c.2.9.4,1.9.6,2.9,1.2,0,2.3,0,3.5,0,.5-.8.3-1.8.5-2.7h-4.7.1ZM928.1,706.3c-5.2,36.8-10,73.6-15.1,110.3,17.8,0,35.5.2,53.2,0,16.5.4,33,0,49.4.2-1.3-10.4-2.8-20.7-4.2-31.1-3.7-26.4-7.1-52.9-10.9-79.2-1.6,0-3.2-.2-4.8-.3-1.8,4.6-6.8,7.5-11.3,6.2-3-.7-5.5-3.1-6.8-6.1-2.5,0-5.1,0-7.6.4-6.3.7-12.6-.4-18.9-.4-1.8,4.2-6.1,7.1-10.4,6.3-3.5-.4-6.3-3.1-7.9-6.4-1.6.2-3.2.3-4.8.3h0Z"/>
    <path class="cls-1" d="M961.4,261.3c2.2-1.2,5.1-.1,7.5-.2,1.9-.1,3,2.3,1.8,3.9-2.4,1.2-5.2.4-7.7.4-2,.3-3.1-2.7-1.6-4.1h0Z"/>
    <path class="cls-1" d="M961.2,269c1.7-1,3.8-.4,5.6-.4,1.5.2,3.4-.4,4.6.9.5,1.2.4,2.8-.7,3.5-2.8.5-5.6.1-8.4-.1-1.6-.3-2.2-2.7-1.1-3.9h0Z"/>
    <path class="cls-1" d="M963.7,286.7c1.2-.2,2.9-.3,3.6,1.1.8,1.4-.3,3.2-1.7,3.3-3.5.6-7,.2-10.5.2-1.9-.8-1.8-3.6,0-4.3,2.8-.5,5.7,0,8.5-.4h.1Z"/>
    <path class="cls-1" d="M971,286.9c2.5-1.3,3.8,3.6,1.2,4-2.3.8-3.2-3.3-1.2-4Z"/>
    <path class="cls-1" d="M975,391.4c.8-.9,2-.4,3-.4,3.9,0,7.8.1,11.7.8,1.8.6,1.6,3.5,0,4.3-3.5.4-6.9-.6-10.4-.5-1.3,0-2.6.1-3.9-.3-1.4-.6-1.6-2.9-.4-3.9h0Z"/>
    <path class="cls-1" d="M933.6,442.1c4.3-.3,8.7-.2,13.1,0,2.2,0,2.5,3.6.6,4.4-3.2.7-6.5-.2-9.7,0-1.5,0-3.7.2-4.4-1.6-.5-.9.2-1.9.4-2.8h0Z"/>
    <path class="cls-1" d="M951.2,447c-1.9-1-1-4.8,1.3-4.1,1.6.2,1.4,2.2,1.4,3.5-.8.4-1.8,1.4-2.7.6Z"/>
    <path class="cls-1" d="M976.8,632.1c2.8-.6,5.9-.4,8.8.3,2.2.5,1.9,4.5-.5,4.4-2.4-.2-4.8-.6-7.2-.5-2,.2-2.8-3.2-1.1-4.2Z"/>
    <path class="cls-1" d="M990.6,633.8c1.8-1.7,4.3,1,2.7,2.9-1.7,2.2-4.7-1-2.7-2.9Z"/>
    <path class="cls-1" d="M933.1,681.9c4.7-.4,9.5-.6,14.2-.2,2.4.2,1.8,4.7-.5,4.5h-12.5c-1.9,0-2.8-3.1-1.1-4.2h-.1Z"/>
    <path class="cls-1" d="M936.5,733.3c5.8-.4,11.6-.8,17.4-.5,1.5,0,2.3,1.6,2.2,3,0,2.8.4,5.7,0,8.4-.5,2.2-3.1,1.6-4.6,2-6.5.3-13.1.6-19.6.5-1.2,0-2.6-.3-2.8-1.8-.3-3.5-.2-7,.2-10.5,1.9-2,4.9-.7,7.3-1.2h-.1ZM933.2,738.3v3.8c6.1-.4,12.2-.7,18.3-.7v-3.4c-6.1,0-12.3.5-18.4.4h.1Z"/>
    <path class="cls-1" d="M973.5,733.4c.9-.7,2-.5,3.1-.6,6.1,0,12.2.3,18.3.7,1.5.2,3.5-.5,4.6,1,1,3.4.4,7.1,0,10.5,0,1.5-1.6,1.8-2.7,1.8-6.5,0-13.1-.2-19.6-.5-1.5-.4-4,.2-4.6-2-.3-2.8-.2-5.7,0-8.6,0-.9.4-1.8,1-2.4h0ZM977,741.3c6.1,0,12.2.3,18.3.8v-3.8c-6,0-12-.3-18-.4,0,1.1-.2,2.2-.3,3.4Z"/>
    <path class="cls-1" d="M984.4,788.5c2-.7,4.2,1.2,3.3,3.5-1.7,2.4-4.8,1.2-7.1,1.5-5.7.4-11.5,0-17.2.3-4.9.5-9.9.3-14.8.4-1.3,0-2.8.2-3.9-.8-1.4-.8-1-3.6.6-3.8,8.9.2,17.8-.8,26.7-.7,4.1,0,8.2-.7,12.3-.5h.1Z"/>
    <path class="cls-1" d="M994.3,789.3c2.3-1.6,4.1,3.1,1.7,4-2.3,1.2-3.8-2.8-1.7-4Z"/>
    <path class="cls-1" d="M924.7,803c7.9-.7,16,0,23.9-.5,2.8,0,5.7-.3,8.5.2,1.5.8,1.4,3.3,0,4.2-1,.4-2.2.3-3.2.3-8.5-.2-17,.5-25.5.2-1.6-.2-3.5.3-4.9-.7-1-1.3-.4-3.5,1.2-3.8h0Z"/>
  </g>
  <g class="cls-5">
    <path class="cls-2" d="M1917.5,702.3c-1.2-3.2-2.2-5.9-2.3-5.9s-2.9-.6-6.4-1.2l-6.4-1.1-9.9,1c-5.4.6-10.3,1.1-10.7,1.1-.7,0-.8.5-.8,3.3v3.3s-2.9.4-6.3.8l-6.1.8-.3,10.6c-.2,5.9-.3,15.3-.4,21v10.4l-3.2,3.9c-1.7,2.1-3.3,3.8-3.3,3.7,0,0-1-38.1-2-84.3l-1.8-84.2-2-2c-1.1-1.1-2.4-2-2.9-2s-21.4,4.2-46.5,9.2c-42.1,8.5-46.7,9.3-60.2,10.9-8,.9-14.8,1.9-15,2.1-.2.2-.6,2.4-.8,4.8-.2,2.5-.5,4.5-.5,4.5,0,0-5,0-11.2,0h-11.2l-32.1,5.5c-17.6,3-32.3,5.7-32.5,5.9-.4.4-1.6,102.2-1.7,140.4v16.7h-32.5l-.3-3c-.4-3.8-2.6-42.5-2.6-44.8v-1.8l-4.2-1.9-4.2-1.9v-80.9l-.2-81-15.1-10.5c-8.3-5.8-15.5-10.5-16-10.5s-8.7,1.8-18.3,4.2c-9.5,2.3-17.4,4.2-17.6,4.2s-.3-4.8-.3-10.8v-10.7l-13-8.2c-7.2-4.5-13.4-8.2-13.8-8.3-.4,0-9.9,2.8-21.1,6.4l-20.3,6.5v64.2c0,0-.2,64.2-.2,64.2l-12.5,6.2-12.5,6.3v130h-20.8v-148.6h-4.2v-17.7l-.2-17.8-16.7-7-16.7-7-17.5,5.8c-9.6,3.1-18.8,6.1-20.4,6.6l-3,.9v81.6h-6.6v-59.9l-1-.2c-.6,0-16.5-2.6-35.3-5.4-18.8-2.9-34.7-5.3-35.2-5.4-.9-.2-2.1,1.2-8.9,10.1l-7.8,10.4v29.7c0,28.2,0,29.8-.8,29.5-.5,0-9.5-2-20.1-4.1l-19.2-3.9-11.7,3.3-11.7,3.3-.2,19.3-.2,19.3-3.5,4.3-3.5,4.3h-2.4c-1.3,0-3.8,0-5.5-.3l-3.2-.3v-62.1l-1-.2c-.6,0-22.2-5-48-10.8l-46.9-10.5-11.2,3.7-11.3,3.8v83.9h-3.4c-1.9,0-6.1,0-9.4.3l-6,.3v-48.4l-6-11.7c-4.4-8.6-6.3-11.8-7-12-.5,0-2-.3-3.4-.5l-2.4-.2-5.2,9.8-5.2,9.8v7.3l-1.5-.2c-.8,0-5.8-.6-10.9-1.2l-9.4-.9-9.7,1.5c-5.3.8-9.8,1.6-9.8,1.6,0,0,1.4,2,3.3,4.4,1.8,2.5,3.2,4.5,3.1,4.5,0,0-3.6,1.6-7.8,3.4l-7.6,3.3v48.6l.2,48.6h488.5c0,0,488.4.2,488.4.2v-118.3l-2.2-5.8-.7-.2ZM1153.2,693.8c1.3.3,1.5.5,1.7,2.1,0,1.8,0,2-2.1,1.5-.9-.2-1.1-.6-1.1-2.1s0-1.7,1.6-1.5h0ZM1120,689.1c0-1.4,1.6-1.7,4.7-1l3.3.8v1.9c0,1.3-.2,1.8-.6,1.7-.3,0-2.2-.5-4-.8l-3.4-.6v-2ZM1120,700.1c0-1.4,0-1.6,1.1-1.4.6,0,2.4.5,4,.8,2.9.5,2.9.6,2.9,2v1.5l-4-.7-4-.7v-1.7.2ZM1120,709.4l1.9.3c1.1.2,2.9.6,4.2.9,1.8.4,2.2.7,2.3,1.8q.2,1.5-4.7.8l-3.7-.5v-3.3h0ZM1104.9,684c.2,0,2,.3,4,.8l3.5.8v1.8q0,2.2-6.9.6c-.9-.2-1.1-.6-1.1-2.1s.2-1.9.5-1.9h0ZM1111.9,711.1c-.3,0-2.2-.4-4-.7l-3.4-.6v-1.6c0-1.8,0-1.8,3.6-1.1q4.4.8,4.4,2.5c0,1.7-.2,1.6-.6,1.4h0ZM1112.4,720.6c0,1.4,0,1.6-.8,1.5-.5,0-1.7-.4-2.7-.5q-4.5-.7-4.5-2.5c0-1.8,0-1.6,1.3-1.4.7,0,2.1.4,3.2.6,3.4.5,3.5.6,3.5,2.4h0ZM1108.3,696.2q3.9.8,4.1,2.3c.2,1.7-.2,1.8-4.9.9q-2.8-.6-3-2.3v-1.7c0,0,3.8.8,3.8.8ZM1088.7,680.7c.2,0,2.1.4,4.3.8l3.9.8v2c0,1.9,0,2-1,1.8-.6,0-2.5-.5-4.2-.8l-3.1-.6v-2c-.2-1.1,0-2,0-2h0ZM1088.8,692.5c.2,0,2.1.3,4.2.8l3.9.8v1.6q0,2-7.4.4c-.9,0-1.1-.5-1.1-1.8s0-1.7.4-1.7h0ZM1088.4,703.5l4.2.8,4.1.8v1.8c.3,1.7.2,1.8-1,1.5-.7,0-2.6-.5-4.2-.8l-3-.6v-3.5h0ZM1088.4,716.4c0-1.6,0-1.8.8-1.6.4,0,2.4.5,4.2.8l3.4.6v1.6c0,1.8,0,1.8-4.8,1l-3.7-.5v-1.8h0ZM1072.8,679.4c0-2,0-2.1,1.1-1.9.6,0,2.4.5,4,.8l2.9.6v2.1c0,2,0,2.1-1,1.9-.6,0-2.4-.5-4-.8l-3-.6v-2.1ZM1061.5,677v-2.1l1.6.3c.8.2,1.7.4,1.9.6.2,0,.3,1,.3,2.1,0,1.9-.4,2.2-2.7,1.6-.9-.2-1.1-.6-1.1-2.4h0ZM1064.2,691.3c-.6,0-1.4-.3-1.7-.3s-.6-.7-.6-1.9c0-1.9.6-2.4,2.5-1.6.5.2.8.9.8,2.2s0,1.9-1,1.6h0ZM1065.3,701c0,1.6,0,1.9-.9,1.9-1.9,0-2.4-.5-2.4-2.5s0-1.9,1.1-1.6c.6,0,1.3.3,1.7.3s.6.7.6,1.9h0ZM1063,791.6c0-1.1.2-1.3,1.5-.8.4,0,.8.7.8,1.2,0,1.4-2.1.9-2.3-.5h0ZM1064.1,783.1c-1,0-1.2-.2-1.2-1.9s0-1.9,1.2-1.9,1.2.2,1.2,1.9,0,1.9-1.2,1.9ZM1064.1,771.7c-1,0-1.2-.2-1.2-1.9s0-1.9,1.2-1.9,1.2.2,1.2,1.9,0,1.9-1.2,1.9ZM1063.2,760.1c-.5-.2-.8-.9-.8-2.1,0-1.9,0-2,1.8-1.6.8.2,1,.6,1,2.1s-.4,2.2-2.1,1.6h0ZM1062.4,746.7c0-1.8,0-1.9,1.3-1.7,1.1,0,1.3.4,1.4,1.9,0,1.7,0,1.8-1.3,1.8s-1.5,0-1.5-1.9h0ZM1063.8,737.3q-1.4,0-1.4-2t1.4-1.8c1.3.2,1.4.4,1.4,2s0,1.8-1.4,1.8ZM1064.5,726c-1.4,0-1.9-.6-2.2-2.5-.3-1.8,0-2,1.9-1.5.8.2,1,.6,1,2.1s-.2,1.8-.8,1.8h0ZM1063.6,714.3c-1.6-.2-1.7-.2-1.7-2.2v-2l1.6.3c1.4.3,1.5.5,1.7,2.2v1.9c0,0-1.6-.2-1.6-.2ZM1075.3,793.6c-2-.3-2.5-.5-2.5-1.2s.3-.8,3-.6c1.6,0,3.4.3,4,.5.6,0,1,.5,1,.9,0,.8-1.5.9-5.5.4h0ZM1080.8,784.8l-3.4-.3c-1.9-.2-3.7-.4-4-.4s-.6-.8-.6-1.9v-1.9l2.5.3c1.3,0,3.2.4,4,.5,1.4.2,1.5.4,1.5,2v1.8h0ZM1080.8,773.4l-3.2-.3c-1.8-.2-3.6-.4-4-.4-.7,0-.8-.5-.8-2v-1.9l1.8.3c.9,0,2.7.4,4,.5q2.2.3,2.2,2.1v1.7h0ZM1080,762.1c-.5,0-2.3-.3-4-.5l-3.2-.3v-3.8l2.3.3c1.2.2,3,.4,4,.6q1.7.3,1.7,2.2c0,1.9,0,1.8-.8,1.6h0ZM1080,750.8c-.5,0-2.3-.4-4-.6l-3.2-.3v-3.8l2.5.3c1.3.2,3.2.4,4,.6,1.4.3,1.5.4,1.5,2.2s0,1.8-.8,1.6ZM1080.8,737.9c0,1.7,0,1.8-1,1.6-.6,0-2.4-.4-4-.6l-3-.3v-1.8q0-2.1,4.8-1.3l3.3.6v1.9h-.1ZM1080.8,728.3l-2-.3c-6.2-.9-5.8-.8-5.9-2.7q-.2-2,4.7-1.2l3.3.6v3.6h0ZM1080.8,717l-2-.3c-6.3-.9-5.8-.7-5.9-2.9v-1.9c0,0,3.3.7,3.3.7,1.9.4,3.7.7,4.1.7s.6.7.6,1.9v1.9h0ZM1080.8,703.9q0,1.8-1.3,1.6c-.8,0-2.2-.4-3.2-.6-3.4-.5-3.5-.6-3.5-2.6s.2-1.8.6-1.7c.3,0,2.1.5,4,.8l3.4.6v1.8h0ZM1075.5,693.4l-2.7-.5v-1.9c0-1.3.2-1.8.6-1.7.3,0,2.1.5,4,.8l3.4.6v1.8c0,2.1.6,2-5.3.8h0ZM1093.2,795c-4.4-.2-4.9-.4-4.9-1.3s2-.7,7,0c.8,0,1.5.5,1.5.8,0,.5-.8.6-3.6.4h0ZM1096.9,786.2l-3.6-.4c-2,0-4-.3-4.2-.3-.4,0-.6-.7-.6-1.7,0-1.6,0-1.7,1.8-1.7s2.9,0,4.2.3l2.5.3v3.4h-.1ZM1096.9,775.1l-3.2-.3q-5.3-.5-5.3-2.4v-1.7l3.4.3c1.8,0,3.8.4,4.2.5.6.2.8.8.8,1.9v1.7h0ZM1096.9,764l-4.2-.5-4.2-.4v-1.9c0-1.2.5-1.7,1.6-1.6.8,0,2.7.4,4.2.6l2.7.3v3.5h0ZM1095.4,752.7c-.8,0-2.8-.4-4.2-.6l-2.7-.3v-1.9c0-1.6,0-1.8.8-1.6.4,0,2,.3,3.4.5,4.1.5,4.2.6,4.2,2.5s0,1.7-1.5,1.4h0ZM1096.9,741.7l-3.2-.3c-5.1-.5-5.3-.6-5.3-2.5s0-1.8,5-1.1l3.5.5v3.3h0ZM1096.9,729c0,1.1-.6,1.6-1.7,1.4-1,0-2.8-.4-4.2-.6-2.3-.3-2.4-.4-2.5-2.1-.2-2-.3-1.9,3.5-1.3,5.1.9,4.9.8,4.9,2.6h0ZM1108.3,729.1c2.2.4,4,.7,4.1.7s0,.8,0,1.7v1.7l-2-.3c-6.2-.9-5.8-.8-5.9-2.6v-1.7c0,0,3.8.6,3.8.6h0ZM1108.8,765.4c-2-.2-3.8-.4-4-.6-.2,0-.4-.9-.4-1.8,0-1.4,0-1.6.8-1.4.4,0,2.2.4,4,.6l3.2.3v3.3l-3.6-.3h0ZM1112.4,774.8c0,1.6,0,1.7-1.5,1.7s-2.7,0-4-.3c-1.7-.2-2.5-.9-2.5-2v-1.7l2.9.3c1.6,0,3.4.3,4,.3,1,0,1.1.2,1.1,1.7ZM1109.8,754.6c-5.2-.6-5.3-.7-5.3-2.5s0-1.7,1.6-1.4c.8,0,2.6.4,4,.6,1.7.2,2.5.8,2.5,1.9v1.7l-2.7-.3h0ZM1110.7,743.7c-1,0-2.8-.4-4-.6-2.2-.3-2.3-.3-2.3-1.9s0-1.8,4.8-1.1l3.3.6v1.6c0,1.6,0,1.7-1.7,1.4h-.1ZM1104.4,785.1v-1.7l3.4.3c1.8.2,3.7.4,4,.5s.6.9.6,1.8v1.6l-2-.2c-6.4-.7-6-.6-6-2.4h0ZM1111.5,796.3c-3.5,0-7.1-.6-7.1-1.2s.4-.7,6.5,0c2.2.3,2.7,1.1.6,1.1h0ZM1122.5,731.4c1.4.2,3.3.5,4.2.7,1.4.3,1.6.5,1.7,1.8,0,1-.5,1.4-1.7,1.3-1-.2-2.8-.4-4.2-.6-2.3-.3-2.4-.4-2.5-1.9v-1.6c0,0,2.4.3,2.4.3h0ZM1125.6,797.4c-3.7-.2-5.1-.5-5.1-1s1.1-.4,6,.2c3.1.4,2.4,1-.9.8ZM1128.5,789.1l-2-.2c-6.3-.7-6-.6-6-2.3v-1.5l3.2.3c1.7.2,3.5.4,4,.4s.8.4.8,1.7v1.6ZM1128.5,778.4l-2.7-.3c-5.1-.6-5.3-.7-5.3-2.2s.2-1.6,5.1-1.1l2.9.3v3.2h0ZM1128.5,767.6l-2.9-.3c-5.4-.5-5.6-.6-5.6-2.2v-1.5l3.9.4c2.2.2,4.1.4,4.2.5.2,0,.4.9.4,1.7v1.4h0ZM1128.5,756.8l-3.4-.3c-4.8-.5-5.1-.6-5.1-2.3v-1.4l3.2.3c1.7,0,3.6.4,4.2.6.8.2,1,.6,1,1.7v1.5h.1ZM1128.5,744.7c0,1.5,0,1.6-1.3,1.3-.8,0-2.6-.4-4.2-.6-2.8-.3-2.8-.4-3-1.9q-.2-1.7,4.9-1l3.5.5v1.6h0ZM1123.5,723.9q-3.3-.6-3.4-2.1c-.2-1.7,0-1.7,3.8-1,1.4.3,3,.6,3.6.8.8,0,1,.5,1,1.6,0,1.6,0,1.7-5,.8h0ZM1135.6,692.2c0-1.9.2-2,5.1-.9l3.3.8v3.6l-3.2-.7c-5.7-1.2-5.3-1-5.3-2.8h0ZM1140,758.3l-4-.4v-1.7c0-1.4,0-1.6,1.1-1.4.6,0,2.4.4,4,.6q2.9.3,2.9,1.8v1.5l-4-.4h0ZM1144.1,768.1q0,1.4-1.7,1.1c-1,0-2.8-.4-4-.5-2.1-.3-2.3-.4-2.3-1.7v-1.4l3.2.3c1.7.2,3.5.5,4,.6.5.2.8.7.8,1.7h0ZM1141.6,748c-5.4-.7-5.6-.8-5.6-2.2s0-1.6,4.8-.8c3.2.6,3.3.6,3.3,2v1.4l-2.5-.3h0ZM1142.1,737.5c-6.1-.9-5.8-.8-5.9-2.5,0-1.3,0-1.5.7-1.3.5,0,1.9.4,3.2.6,3.7.5,4,.6,4,2.2s0,1.4-2,1.1h0ZM1143.5,727.2c-.3,0-2.2-.4-4-.7q-3.4-.6-3.4-2c0-1.4,0-1.5,2-1.1,1.1.2,2.9.5,4,.6,1.9.2,2,.3,2,1.8s-.2,1.5-.6,1.4ZM1139.3,715.9c-3-.6-3.1-.6-3.2-2.1,0-1.3,0-1.5.7-1.3.5,0,2.3.5,4.1.8,3.1.5,3.2.6,3.2,1.9s0,1.6-4.7.7h0ZM1144,706.2s-1.8-.3-3.8-.7-3.8-.7-3.9-.7-.2-.7-.2-1.5c0-1.7-.2-1.6,5.8-.3,2,.4,2.2.6,2.2,1.8v1.4h0ZM1144.4,798.4c-.4.4-8.4-.4-8.4-.8s2.2-.2,6.5.3c1.1,0,2,.4,1.8.5h0ZM1142.3,790.3c-6.7-.7-6.3-.6-6.3-2.1v-1.4l3.9.3c2.1,0,4,.4,4.2.5.2,0,.3.8.3,1.6q0,1.4-2.2,1.1h0ZM1144.5,779.9l-3.2-.3c-1.8-.2-3.7-.3-4.2-.3-.9,0-1.1-.2-1.1-1.7s0-1.7,1.1-1.5c.6,0,2.5.4,4.2.6,3.1.3,3.2.4,3.2,1.8v1.4ZM1153.1,791.2c-1.3-.3-1.5-3.1,0-2.9.5,0,.8.7.9,1.7,0,1.3,0,1.5-.8,1.2ZM1153.3,780.7c-1,0-1.2-.2-1.2-1.5s0-1.4,1.1-1.3c.8,0,1.1.5,1.2,1.4,0,1.1,0,1.3-1,1.3h0ZM1153.3,770.3c-1,0-1.2-.2-1.2-1.5s0-1.4,1.1-1.3c.8,0,1.1.5,1.2,1.4,0,1.1,0,1.3-1,1.3h0ZM1153,759.9c-1.3,0-1.4,0-1.4-1.4s0-1.4,1.4-1.4,1.4,0,1.4,1.4,0,1.4-1.4,1.4ZM1153.2,749.5c-1,0-1.4-.4-1.5-1.5s0-1.3,1.3-1.3,1.5,0,1.5,1.5,0,1.4-1.3,1.3ZM1153.2,739.1c-1,0-1.4-.4-1.5-1.5s0-1.3,1.3-1.3,1.5,0,1.5,1.5,0,1.4-1.3,1.3ZM1153.8,728.8c-1.5,0-2.2-.6-2.2-1.8s0-1.3,1.4-1.1c1.2.2,1.4.4,1.4,1.6s-.2,1.4-.7,1.4h0ZM1153.8,718.4c-1.5,0-2.2-.6-2.2-1.8s0-1.3,1.4-1.1c1.2.2,1.4.4,1.4,1.6s-.2,1.4-.7,1.4h0ZM1154.3,708c-1.9,0-2.7-.6-2.7-1.9s0-1.4,1.3-1.1c.7.2,1.4.4,1.7.5.6.3.4,2.5-.2,2.5h-.1ZM1287.9,636.1c.8.2,1,.7,1,1.9s-.3,1.8-2.2,1.3c-.8-.2-1.1-.7-1.1-1.9s.3-1.8,2.3-1.3h0ZM1285.6,646.9l3.3.4v5.1h-3.3v-5.5ZM1285.6,659.9h1.6c1,.2,1.6,1.2,1.7,3.1,0,2.7,0,2.7-.9,2.5-.6,0-1.4-.3-1.7-.3s-.6-.8-.6-2.6v-2.6h0ZM1285.6,675.4c0-2.8,0-2.9,1.1-2.6.6,0,1.3.3,1.7.3s.6.8.6,2.6v2.6h-3.3v-2.9h0ZM1285.6,685.9h3.3v2.9c0,2.5,0,2.8-.8,2.6-.4,0-1.1-.3-1.7-.3s-.9-.3-.9-2.6v-2.6h0ZM1288.9,701.8v2.5h-1.5q-1.6-.3-1.7-3c0-2.8,0-3,2.2-2.4.9.3,1,.6,1,2.9ZM1285.6,711.8h3.3v5.2h-3.3v-5.2ZM1276.8,634.7c.5.2.8.8.8,1.9s-.2,1.6-.9,1.6c-1.8,0-2.4-.5-2.4-2.2s.7-2,2.5-1.3ZM1274.3,645.8h3.3v2.9c0,2.5,0,2.8-.8,2.6-.4,0-1.1-.3-1.7-.3s-.9-.3-.9-2.6v-2.6h0ZM1274.3,671.7h1.8c0,0,1.7.3,1.7.3v2.7c.2,1.5,0,2.7,0,2.7s-1.1,0-1.9-.3c-1.4-.3-1.5-.4-1.5-2.9v-2.5ZM1265.7,633.3c.8,0,1,.5,1,1.8s0,1.7-1.6,1.7c-2.6,0-3.1-.4-3.1-2.4s0-1.9,3.7-1.1ZM1261.5,644.3h2.5c0,0,2.5.3,2.5.3v2.7q.3,3-3.2,2.5l-1.8-.3v-5.1h0ZM1262.6,657.3c.6,0,1.7.3,2.6.3h1.5v5.8l-1.5-.3c-.8,0-2-.3-2.6-.3-1.1,0-1.1,0-1.1-2.9s0-2.9,1.1-2.6ZM1261.5,673.1c0-2.1,1.1-2.9,3.4-2.5l1.7.3v5.3h-2.6c0,0-2.6-.3-2.6-.3v-2.8h0ZM1261.1,683.5h2.1c1.1,0,2.4,0,2.8.3.6.2.8.9.8,2.8s0,2.5-1.4,2.5-2,0-2.8-.3c-1.4-.3-1.5-.4-1.5-2.8v-2.5ZM1262.1,696.4c.6,0,1.8.3,2.8.3h1.7v5.8l-1.7-.3c-1,0-2.3-.3-2.8-.3-1,0-1.1-.2-1.1-2.9s0-2.9,1.1-2.6ZM1260.8,711.6c.3-1.5,1.5-2.1,3.8-1.8l2.2.3v5.3h-2.9c-3.3-.3-3.5-.7-3.1-3.8ZM1260.6,722.7h2c1.1,0,2.5,0,3.1.3.9.3,1,.6,1,2.8v2.5h-2c-3.8,0-4.2-.3-4.2-3.1v-2.5h0ZM1261.3,735.6c.4,0,1.8.3,3.1.3h2.3v5.8l-1.7-.3c-1,0-2.4-.3-3.1-.3q-1.3,0-1.3-2.9c0-2.9,0-2.8.8-2.6h-.1ZM1260.1,752.2c0-3.4.3-3.7,2.7-3.4,1.2,0,2.5.3,3,.3.8,0,.9.4.9,2.6v2.6h-6.6v-2.1h0ZM1266.7,804.8h-7.1v-3.8h7.1v3.8ZM1266.7,793.4h-7.1v-2.8q0-2.8,1.4-2.8c1.4,0,2.3,0,3.5.3l2.2.3v5ZM1266.7,780.8l-1.5-.3c-.8,0-2.3-.3-3.3-.3h-1.8v-2.9c0-2.5,0-2.8.8-2.6.4,0,1.9.3,3.3.3h2.5v5.8ZM1264.5,767.5c-4.1,0-4.4-.2-4.4-3.2v-2.5h3.2c0,0,3.2.3,3.2.3v2.7c0,0,.3,2.7.3,2.7h-2.3,0ZM1277,805.5c-.6,0-1.5-.3-1.9-.3-.7,0-.8-.4-.8-1.9s0-1.9,1.1-1.7c.6,0,1.4.3,1.9.3s.8.4.8,1.9,0,1.9-1,1.7h0ZM1278,791.6c0,2.5,0,2.8-.8,2.6-.4,0-1.3-.3-1.9-.3-1,0-1.1,0-1.1-2.6v-2.6h3.8v2.9h0ZM1278,781.2h-3.8v-2.8c0-1.6.2-2.8.4-2.8s1.1,0,1.9.3c1.4.3,1.5.4,1.5,2.8v2.5ZM1278,765.7c0,2.5,0,2.8-.8,2.6-.4,0-1.3-.3-1.9-.3-1,0-1.1,0-1.1-2.6v-2.6h3.8v2.9h0ZM1278,755.2h-3.8v-2.8c0-3,.2-3.2,2.7-2.5.9.3,1,.6,1,2.8v2.5h.1ZM1278,739.7c0,2.5,0,2.8-.8,2.6-.4,0-1.3-.3-1.9-.3-1,0-1.1,0-1.1-2.6v-2.6h3.8v2.9h0ZM1278,729.3h-3.8v-2.8c0-3,.2-3.2,2.7-2.5.9.3,1,.6,1,2.8v2.5h.1ZM1278,716.1h-3.8v-5.5l3.8.4v5.1ZM1276.9,703.3c-2.3,0-2.6-.4-2.6-3.1s0-2.5,1.1-2.5,1.5,0,1.9.3c.6.2.8.9.8,2.8s0,2.5-1.1,2.5h-.1ZM1278,690.1h-3.8v-2.9c0-2.5,0-2.8.8-2.6.4,0,1.3.3,1.9.3,1,0,1.1,0,1.1,2.6v2.6h0ZM1274.3,664.2v-5.8l1.6.3c.8.2,1.6.4,1.7.5,0,0,.3,1.2.4,2.5l.2,2.4h-3.9,0ZM1289.4,806.2h-3.8v-3.8h3.8v3.8ZM1289.4,794.9h-3.8v-2.8c0-3,.2-3.2,2.7-2.5.9.3,1,.6,1,2.8v2.5h.1ZM1289.4,781.9l-3.8-.4v-5.1h3.8v5.5ZM1289.4,768.9h-3.8v-2.9c0-2.5,0-2.8.8-2.6.4,0,1.3.3,1.9.3,1,0,1.1,0,1.1,2.6v2.6h0ZM1289.4,753.3c0,1.6-.2,2.8-.4,2.8s-1.1,0-1.9-.3c-1.4-.3-1.5-.4-1.5-2.8v-2.5h3.8v2.8ZM1289.4,743h-3.8v-5.2h3.8v5.2ZM1288.2,730.2c-2.3,0-2.6-.4-2.6-3.1s0-2.5,1.1-2.5,1.5,0,1.9.3c.6.2.8.9.8,2.8s0,2.5-1.1,2.5h-.1ZM1323.7,720.1c-.6,0-1.9-.3-2.8-.3h-1.8v-2.6q0-2.9,3.9-2.3l1.7.3v2.5c0,2.5,0,2.6-1,2.3h0ZM1324.8,728v5.1l-1.5-.3c-.8,0-2.1-.3-2.8-.3-1.3,0-1.4,0-1.4-2.6s0-2.9,3.9-2.3l1.7.3h.1ZM1322.8,702.2c1.4.3,1.5.4,1.5,2.9s0,2.5-.8,2.3c-.4,0-1.6-.3-2.6-.3h-1.8v-2.6c0-2.9.2-3,3.7-2.3h0ZM1319.1,694.4v-5.2h1.6c.8,0,2,0,2.6.3.9.3,1,.6,1,2.9s0,2.5-.8,2.3c-.4,0-1.6-.3-2.6-.3h-1.8,0ZM1320.7,640.4c1.1,0,2.3.3,2.6.5.3,0,.6.8.6,1.5,0,1.2,0,1.3-1.5,1.2-3.4-.4-3.7-.6-3.7-2s0-1.4,2-1.1h0ZM1308.9,638.9c.6,0,1.6.3,2.2.3s.9,0,.6.3c-.3,0-.6.8-.6,1.4,0,1-.2,1.1-1.7,1.1s-1.7,0-1.7-1.7,0-1.7,1.1-1.4h0ZM1307.8,649.5h1.6q1.5.3,1.7,2.9v2.6c0,0-1.6-.2-1.6-.2l-1.7-.2v-5.1ZM1310.3,662.6c.6.2.8.9.8,2.9s0,2.5-.8,2.3c-.4,0-1.1-.3-1.7-.3s-.9-.3-.9-2.6.5-3.1,2.5-2.3h0ZM1308.9,675.2c.6,0,1.3.3,1.7.3s.6.8.6,2.6c0,2.7,0,2.9-2.2,2.3-.9-.3-1.1-.6-1.1-2.9s0-2.6,1.1-2.3h0ZM1298.7,637.6c.8.2,1,.7,1,1.8s0,1.5-1.7,1.3c-1.5-.2-1.7-.3-1.7-1.8s.3-1.8,2.3-1.3h0ZM1296.9,648.1c.2,0,1.1,0,1.9.3,1.4.3,1.5.4,1.5,2.8s-.2,2.9-2.7,2.3c-.9-.3-1.1-.6-1.1-2.8s.2-2.5.4-2.5h0ZM1296.4,663.6c0-2.5,0-2.8.8-2.6.4,0,1.3.3,1.9.3,1,0,1.1,0,1.1,2.6v2.6h-3.8v-2.9h0ZM1296.4,674.1h3.8v5.5l-3.8-.4v-5.1ZM1299.2,687.1c.9.3,1,.6,1,2.8s-.2,2.5-.4,2.5-1.1,0-1.9-.3c-1.4-.3-1.5-.4-1.5-2.8s.2-2.9,2.7-2.3h.1ZM1296.5,702.2c0-2.4,0-2.7.6-2.5.4,0,1.3.3,1.9.3,1,0,1.1,0,1.1,2.6v2.6h-1.7c0,0-1.8-.3-1.8-.3v-2.8h0ZM1297.7,738.4c.4,0,1.1.3,1.7.3s.9.3.9,2.6v2.6h-3.3v-2.9c0-2.5,0-2.8.8-2.6h0ZM1296.9,728v-2.6h1.6c1,.2,1.6,1.2,1.7,3.1,0,2.7,0,2.7-.9,2.5-.6,0-1.4-.3-1.7-.3s-.6-.8-.6-2.6h0ZM1296.9,718v-5.2h3.3v5.2h-3.3ZM1296.9,764.1h1.8c0,0,1.7.3,1.7.3v2.8c.3,2.7.2,2.7-.8,2.5-.6,0-1.5-.3-1.9-.3-.7,0-.8-.4-.8-2.6v-2.6h0ZM1300.7,806.7h-3.8v-3.8h3.8v3.8ZM1300.7,795.3h-3.8v-5.2h3.8v5.2ZM1300.7,782.6h-3.8v-2.9c0-2.8,0-2.9,1.1-2.6.6,0,1.4.3,1.9.3s.8.4.8,2.6v2.6h0ZM1300.7,756.6h-3.8v-5.2h3.8v5.2ZM1309.7,688.1l1.9.2v5.1h-1.7c0,0-1.8-.3-1.8-.3v-2.6c0,0-.3-2.6-.3-2.6l1.9.2h0ZM1307.8,706.2v-5.2h3.8v5.2h-3.8ZM1311.5,713.7v5.2h-3.8v-5.2h3.8ZM1307.8,726.4h1.8c0,0,1.7.3,1.7.3v2.8c.3,2.4.2,2.7-.5,2.5-.4,0-1.3-.3-1.9-.3-1,0-1.1,0-1.1-2.6v-2.6h0ZM1310.5,739.5c.9.3,1,.6,1,2.9v2.6l-1.5-.3c-.8,0-1.5-.3-1.6-.4,0,0-.2-1.2-.4-2.6-.3-2.6,0-2.8,2.4-2.2h0ZM1311.5,752.5v5.1h-3.3v-5.5l3.3.4ZM1310.1,807.1h-1.9v-1.9c0-2,.4-2.2,2.7-1.6.8.2,1,.7,1,1.9s0,1.6-1.9,1.6h.1ZM1312,796.1l-3.8-.4v-5.1h3.8v5.5ZM1312,783.1h-3.8v-5.2h3.8v5.2ZM1312,770.3h-3.8v-5.2h3.8v5.2ZM1320.5,651c1,0,2.2,0,2.6.3.6.2.8.9.8,2.7v2.5l-2.5-.3-2.5-.2v-2.5c0,0-.3-2.5-.3-2.5h1.9ZM1318.6,663.7h1.8c.9,0,2.2,0,2.8.3.9.3,1,.6,1,2.8v2.5l-2.2-.2c-2.3-.2-3.4-1.2-3.4-3v-2.4h0ZM1318.9,676.4h1.7c.9,0,2.1,0,2.7.3.9.3,1,.6,1,2.9s0,2.5-.8,2.3c-.4,0-1.6-.3-2.5-.3h-1.8l-.2-2.6v-2.6h0ZM1322.6,740.4l2.2.3v5.2l-1.7-.3c-1,0-2.3-.3-2.8-.3-1,0-1.1-.2-1.1-2.6s0-2.8,3.5-2.3h0ZM1322.6,753.1l2.2.3v5.2l-2.5-.3c-1.4-.2-2.5-.4-2.6-.4s-.2-1.2-.4-2.6c-.3-2.7-.5-2.7,3.3-2.2ZM1325.2,806.2c0,1.3-.6,1.9-1.7,1.9-3.2,0-3.9-.4-3.9-2.2v-1.6h5.7v1.9h0ZM1325.2,796.8h-2.7c0,0-2.7-.3-2.7-.3v-2.6c0,0-.3-2.6-.3-2.6h2.9c0,0,2.8.3,2.8.3v5.1h0ZM1325.2,784h-1.7c-3.6,0-3.9-.3-3.9-3.2s0-2.6,1.1-2.3c.6,0,1.8.3,2.8.3h1.7v5.2ZM1325.2,768.7c0,2.5,0,2.6-1.4,2.6s-2,0-2.8-.3c-1.4-.3-1.5-.4-1.5-2.9s0-2.6,1.1-2.3c.6,0,1.8.3,2.8.3h1.7v2.6h.1ZM1508.8,574.1l1.8-.4,1.7-.4v4c.2,2.2.2,4.1,0,4.1,0,0-.9.3-1.9.5l-1.8.3v-8h.1ZM1511.1,798.6c-1.1,0-1.4-.2-1.4-.9s.3-.9,1.4-.9,1.4.2,1.4.9-.3.9-1.4.9ZM1512.5,789.2h-2.8v-8.5h2.8v8.5ZM1512.5,773.2h-2.8v-4c0-3.4,0-4,.8-4.2,1.9-.5,2-.5,2,3.9v4.2h0ZM1512.5,757l-1.3.2c-.8,0-1.4.2-1.4.2,0,0-.2-1.9-.3-4.2l-.2-4.1,1.4-.2c.8,0,1.5-.2,1.6-.2v8.3h.2ZM1512.5,737c0,4.2-.2,4.5-2.4,4.5s-.9-.4-.9-4.2v-4.2h3.3v4h0ZM1512.5,725.5h-3.3v-3.9c0-2.2,0-4.1.3-4.2,0-.2.9-.3,1.7-.3h1.3v8.5h0ZM1512.5,709.5h-3.3v-4c0-4.2,0-4.3,2.5-4.5.7,0,.8.5.8,4.2v4.2h0ZM1511.6,693.4c-.5,0-1.2,0-1.7.3-.7.2-.8-.3-.8-4v-4.3l1.3-.2c.7,0,1.4-.2,1.7-.3.2,0,.3,1.8.3,4.2,0,3.9,0,4.2-.9,4.2h0ZM1509.2,677.9v-8.5h1.6c0,0,1.5-.3,1.5-.3v4c.2,2.2.2,4,0,4.1,0,0-.8.3-1.7.5l-1.6.3h0ZM1512.5,657.3c0,3.7,0,4-1,4.2-2.2.6-2.3.5-2.3-3.6s0-4.1.3-4.2c0-.2.9-.3,1.7-.3h1.3v4h0ZM1510.1,645.8c-.8,0-.9-.4-.9-4s0-4.3,2.5-4.5c.7,0,.8.4.8,3.9s-.2,4.5-2.4,4.5h0ZM1509.2,630.1v-4.2c0-3.9,0-4.2,1.1-4.3,2.3-.5,2.3-.6,2.1,3.8v4.1c0,0-1.7.3-1.7.3l-1.6.3h0ZM1512.5,613.6l-1.5.2c-.8,0-1.6.2-1.7,0,0,0,0-1.8-.2-4.1l-.2-4,1.4-.3c.8-.2,1.6-.3,1.8-.4.2,0,.3,1.8.3,4.2v4.2h0ZM1512.1,597.6c-.2,0-1.1,0-1.9.3l-1.5.3v-8.1l1.6-.5c.8-.2,1.7-.5,1.9-.5s.3,1.8.3,4.2-.2,4.2-.4,4.2h0ZM1510.7,565.9c-1.7.4-1.9.4-1.9-.4s1.4-1.7,3-1.8c.5,0,.8.3.8.8s-.5,1-1.9,1.4ZM1560.2,750.5c0,2.1,0,2.3-1.5,2.5-3.8.8-3.7.8-3.7-4.2v-4.5l2-.2c1.1,0,2.1-.2,2.3-.2s.4.9.6,2.1c0,1.2.3,3.2.3,4.4h0ZM1558.7,769.6c-3.8.8-3.7.8-3.7-4.2v-4.5l2.3-.2c1.2,0,2.4-.2,2.6-.2s.3,1.9.3,4.3v4.4l-1.5.3h0ZM1560.2,781.4c0,4.9,0,5-3.6,5h-1.6v-8.9l2.3-.2c1.2,0,2.4-.2,2.6-.2s.3,1.9.3,4.3h0ZM1555,736.8v-8.9l2-.2c1.1,0,2.1-.2,2.4-.2s.3,1.9.3,4.3c0,4.9,0,5-3.4,5h-1.3ZM1559.7,715.3v4.4l-1.5.3c-3.3.7-3.3.8-3.3-4.2v-4.5l1.8-.2c.9,0,2-.2,2.4-.2s.6,1.1.6,4.3h0ZM1555,699.4v-4.5l1.8-.2c.9,0,1.9-.2,2.1-.2s.3,1.9.3,4.3c0,4.8,0,5-3.2,5s-1.1,0-1.1-4.4h0ZM1559.2,686.7l-1.5.3c-2.8.6-2.8.7-2.8-4.2v-4.5l1.6-.2c.8,0,1.8-.2,2.1-.2s.6,1.1.6,4.3v4.4h0ZM1559,670.2s-.9.2-2,.4l-2,.3v-9.1l1.6-.2c.8,0,1.7-.2,1.8-.2.2,0,.4,1.9.5,4.2,0,2.4,0,4.4,0,4.5h0ZM1555,654.4v-9l1.3-.2c.7,0,1.6-.2,1.9-.3.4,0,.6,1.1.6,4.4s-.2,4.5-.4,4.5-1.1,0-1.9.3l-1.5.3ZM1557.6,552.6c.3,1.3-.3,2.1-1.8,2.1s-.8-.4-.8-1.4c0-2.1,2.2-2.7,2.6-.7h0ZM1555,567.2c0-4.5,0-4.8,2-4.9.8,0,.8.4.7,4.3q0,4.3-1.4,4.7l-1.3.3v-4.4h0ZM1555,583.7c0-3.8,0-4.4.8-4.6,1.9-.5,2-.5,2,4.1v4.4l-1.4.2-1.4.2v-4.4h0ZM1557.5,595.3c.7,0,.8.5.8,4.4s0,4.5-.9,4.5-1.2,0-1.7.3c-.7.2-.8-.3-.8-4.2s0-4.8,2.5-5h0ZM1557.7,611.8c.4,0,.6,1.1.6,4.4s0,4.5-.6,4.5-1.1,0-1.7.3c-1.1.3-1.1.2-1.1-4.2s0-4.7,2.7-5h0ZM1546.4,581.5c.8-.9,1.1,0,1,4,0,2.9-.3,4.4-.7,4.5-.5,0-.6-.9-.6-4.1s0-4.3.3-4.5h0ZM1546,569.4c0-2.3,0-4.3.3-4.5.8-.9,1.1,0,1,4,0,2.9-.3,4.4-.7,4.5-.5,0-.6-.9-.6-4.1h0ZM1546.7,597.6c.6,0,.7.7.6,4.3,0,2.9-.3,4.4-.7,4.5-.5,0-.6-.9-.6-4.3s0-4.5.7-4.5ZM1521,798.2c-.2,0-.5-.4-.5-.9s.2-.9.5-.9.5.4.5.9-.2.9-.5.9ZM1521,788.5c-.3.2-.5-1.3-.5-4s.2-4.3.5-4.3.5,1.7.5,4-.2,4.2-.5,4.3ZM1521,772.4c-.3.2-.5-1.3-.5-4s.2-4.3.5-4.3.5,1.7.5,4-.2,4.2-.5,4.3ZM1521,756.4c-.3.2-.5-1.3-.5-4s.2-4.3.5-4.3.5,1.7.5,4-.2,4.2-.5,4.3ZM1521,740.4c-.3.2-.5-1.3-.5-4s.2-4.3.5-4.3.5,1.7.5,4-.2,4.2-.5,4.3ZM1521,724.1c-.3,0-.5-1.7-.5-4s.2-4,.5-4,.5,1.7.5,4-.2,4-.5,4ZM1521,708c-.3,0-.5-1.7-.5-4s.2-4,.5-4,.5,1.7.5,4-.2,4-.5,4ZM1521,692c-.3,0-.5-1.7-.5-4.2s.2-4.2.5-4.2.5,1.7.5,4.2-.2,4.2-.5,4.2ZM1521,676c-.3,0-.5-1.7-.5-4.2s.2-4.2.5-4.2.5,1.7.5,4.2-.2,4.2-.5,4.2ZM1521,659.9c-.3,0-.5-1.7-.5-4.2s.2-4.2.5-4.2.5,1.7.5,4.2-.2,4.2-.5,4.2ZM1521,643.9c-.3,0-.5-1.7-.5-4.2s.2-4.2.5-4.2.5,1.7.5,4.2-.2,4.2-.5,4.2ZM1521,627.8c-.3,0-.5-1.7-.5-4.2s.2-4.2.5-4.2.5,1.7.5,4.2-.2,4.2-.5,4.2ZM1521,611.8c-.3,0-.5-1.7-.5-4.2s.2-4.2.5-4.2.5,1.7.5,4.2-.2,4.2-.5,4.2ZM1521,595.5c-.3.2-.5-1.3-.5-4s.2-4.3.5-4.3.5,1.7.5,4-.2,4.2-.5,4.3ZM1521,579.5c-.3.2-.5-1.3-.5-4s.2-4.3.5-4.3.5,1.7.5,4-.2,4.2-.5,4.3ZM1521,563.2c-.2,0-.5-.4-.5-.9s.2-.9.5-.9.5.4.5.9-.2.9-.5.9ZM1529.5,797.7c-.5,0-.7-1.6,0-2,.5-.5.6-.4.6.8s-.2,1.2-.5,1.2ZM1529.5,787.8c-.3,0-.5-1.7-.5-4.2s.2-4.2.5-4.2.5,1.7.5,4.2-.2,4.2-.5,4.2ZM1529.5,771.7c-.3,0-.5-1.7-.5-4.2s.2-4.2.5-4.2.5,1.7.5,4.2-.2,4.2-.5,4.2ZM1529.5,755.7c-.3,0-.5-1.7-.5-4.2s.2-4.2.5-4.2.5,1.7.5,4.2-.2,4.2-.5,4.2ZM1529.5,739.7c-.5,0-.7-8.1,0-8.6.6-.6.6-.3.6,4.2s-.2,4.5-.5,4.5h0ZM1529.5,723.1c-.3,0-.5-1.7-.5-4.2s.2-4.2.5-4.2.5,1.7.5,4.2-.2,4.2-.5,4.2ZM1529.5,707.1c-.3,0-.5-1.7-.5-4.2s.2-4.2.5-4.2.5,1.7.5,4.2-.2,4.2-.5,4.2ZM1529.5,691.1c-.3,0-.5-1.7-.5-4.2s.2-4.2.5-4.2.5,1.7.5,4.2-.2,4.2-.5,4.2ZM1529.5,674.8c-.3.2-.5-1.3-.5-4.2s.2-4.5.5-4.5.5,1.7.5,4.2-.2,4.4-.5,4.5ZM1529.5,658.5c-.3,0-.5-1.7-.5-4.2s.2-4.2.5-4.2.5,1.7.5,4.2-.2,4.2-.5,4.2ZM1529.5,642.5c-.3,0-.5-1.7-.5-4.2s.2-4.2.5-4.2.5,1.7.5,4.2-.2,4.2-.5,4.2ZM1529.5,626.2c-.3.2-.5-1.3-.5-4.2s.2-4.5.5-4.5.5,1.7.5,4.2-.2,4.4-.5,4.5ZM1529.5,609.9c-.3,0-.5-1.7-.5-4.2s.2-4.2.5-4.2.5,1.7.5,4.2-.2,4.2-.5,4.2ZM1529.5,593.9c-.3,0-.5-1.7-.5-4.2s.2-4.2.5-4.2.5,1.7.5,4.2-.2,4.2-.5,4.2ZM1529.5,577.4c-.3,0-.5-1.7-.5-4.2s.2-4.2.5-4.2.5,1.7.5,4.2-.2,4.2-.5,4.2ZM1529.5,561.3c-.2,0-.5-.5-.5-1.2s.2-1.2.5-1.2.5.5.5,1.2-.2,1.2-.5,1.2ZM1538,797.2c-.2,0-.5-.5-.5-1.2s.2-1.2.5-1.2.5.5.5,1.2-.2,1.2-.5,1.2ZM1538,787.3c-.3,0-.5-1.7-.5-4.2s.2-4.2.5-4.2.5,1.7.5,4.2-.2,4.2-.5,4.2ZM1538,771.3c-.5,0-.7-8.1,0-8.6.6-.6.6-.3.6,4.2s-.2,4.5-.5,4.5h0ZM1538,754.8c-.3,0-.5-1.7-.5-4.2s.2-4.2.5-4.2.5,1.7.5,4.2-.2,4.2-.5,4.2ZM1538,738.7c-.5,0-.7-8.1,0-8.6.6-.6.6-.3.6,4.2s-.2,4.5-.5,4.5h0ZM1538,722.2c-.3,0-.5-1.7-.5-4.2s.2-4.2.5-4.2.5,1.7.5,4.2-.2,4.2-.5,4.2ZM1538,706.2c-.5,0-.7-8.1,0-8.6.6-.6.6-.3.6,4.2s-.2,4.5-.5,4.5h0ZM1538,689.6c-.3,0-.5-1.7-.5-4.2s.2-4.2.5-4.2.5,1.7.5,4.2-.2,4.2-.5,4.2ZM1538,673.6c-.3,0-.5-1.8-.5-4.5s.2-4.5.5-4.5.5,1.8.5,4.5-.2,4.5-.5,4.5ZM1538,657.1c-.3,0-.5-1.7-.5-4.2s.2-4.2.5-4.2.5,1.7.5,4.2-.2,4.2-.5,4.2ZM1538,640.8c-.3.2-.5-1.3-.5-4.2s.2-4.5.5-4.5.5,1.7.5,4.2-.2,4.4-.5,4.5ZM1538,624.5c-.3,0-.5-1.7-.5-4.2s.2-4.2.5-4.2.5,1.7.5,4.2-.2,4.2-.5,4.2ZM1538,608c-.3,0-.5-1.7-.5-4.2s.2-4.2.5-4.2.5,1.7.5,4.2-.2,4.2-.5,4.2ZM1538,592c-.5,0-.7-8.1,0-8.6.6-.6.6-.3.6,4.2s-.2,4.5-.5,4.5h0ZM1538,575.5c-.3,0-.5-1.7-.5-4.2s.2-4.2.5-4.2.5,1.7.5,4.2-.2,4.2-.5,4.2ZM1538,559.2c-.3.2-.5-.3-.5-1.1s.2-1.5.5-1.5.5.5.5,1.1-.2,1.3-.5,1.5ZM1546.7,796.3c-.4,0-.7-.4-.7-.9s.3-.9.7-.9.7.4.7.9-.3.9-.7.9ZM1546.7,786.8c-.6,0-.7-.8-.7-4.2s0-4.2.7-4.2.7.8.7,4.2,0,4.2-.7,4.2ZM1546.7,770.3c-.6,0-.7-.8-.7-4.2s0-4.2.7-4.2.7.8.7,4.2,0,4.2-.7,4.2ZM1546.7,754.3c-.6,0-.7-.8-.7-4.5s0-4.5.7-4.5.7.8.7,4.5,0,4.5-.7,4.5ZM1546.7,737.8c-.6,0-.7-.8-.7-4.2s0-4.3.3-4.5c.8-.9,1.1,0,1.1,4.2s0,4.5-.7,4.5h0ZM1546.7,721.3c-.6,0-.7-.8-.7-4.2s0-4.2.7-4.2.7.8.7,4.2,0,4.2-.7,4.2ZM1546.7,704.9c-.6.2-.7-.4-.7-4.2s0-4.5.7-4.5.7.8.7,4.2,0,4.2-.7,4.5ZM1546,684.3c0-3.8,0-4.5.7-4.5s.7.7.6,4.3c0,2.9-.3,4.4-.7,4.5-.5,0-.6-.9-.6-4.3ZM1546.7,672.2c-.6,0-.7-.8-.7-4.2s0-4.3.3-4.5c.8-.9,1.1,0,1.1,4.2s0,4.5-.7,4.5h0ZM1546.7,655.7c-.6,0-.7-.8-.7-4.2s0-4.3,1.3-4.7v4.4c0,3.7,0,4.5-.7,4.5h0ZM1546.7,639.2c-.6,0-.7-.8-.7-4.2s0-4.2.7-4.2.7.8.7,4.2,0,4.2-.7,4.2ZM1546.7,622.6c-.6,0-.7-.8-.7-4.2s0-4.2.7-4.2.7.8.7,4.2,0,4.2-.7,4.2ZM1546.7,557.1c-.5,0-.7-.5-.7-1.4s.2-1.4.7-1.4.7.5.7,1.4-.2,1.4-.7,1.4ZM1557.6,628.4c.3,0,.7.8.8,1.7,0,1,.3,3,.3,4.5,0,2.3,0,2.7-.8,2.7s-1.3,0-1.9.3c-1.1.3-1.1.2-1.1-4.2s0-4.7,2.6-5h0ZM1557.8,795.8c-2.5,0-2.8,0-2.8-.9s.4-1,2.3-1.1c1.2,0,2.5-.2,2.8-.2s.6.4.6,1.1c0,1.1,0,1.2-2.8,1.2h0ZM1659.6,630.7c.9,0,1.2.2,1,.8,0,.5-.6.9-1.2,1-.8,0-1,0-1-.8s.3-1,1.2-1ZM1647.1,634.2c0-.8,1-1.2,3.3-1.6.2,0,.3.4.3.9s-.3.9-.8.9-1.4,0-2,.3c-.9.2-1,0-.9-.6h0ZM1646.8,646c.4-3.8.2-3.6,3.4-4,.4,0,.6,1,.6,3.7v3.7l-1.9.3c-1,.2-2,.2-2.2,0v-3.8h0ZM1646.6,661.5c0-2.5.6-3.8,1.6-4,2.6-.6,2.6-.7,2.6,3.3v3.7l-1.5.3c-2.9.6-2.8.6-2.7-3.3ZM1646.6,676.5v-3.6c0,0,1.8-.3,1.8-.3.9-.2,1.8-.3,2-.4.2,0,.3,1.6.3,3.7,0,4-.2,4.2-3.2,4.3-1,0-1.1,0-.9-3.7h0ZM1649.4,725.5c-.8,0-1.7,0-2.1.3-.7.2-.8-.2-.8-3.5s0-4.2,2.7-4.3h1.5v7.5h-1.4.1ZM1650.8,733v3.8c0,3.6,0,3.8-1,3.8s-1.6,0-2.1.3c-1,.3-1.1.2-1.1-3.5s0-4.2,3-4.3h1.3-.1ZM1648.7,710.5h-2.1c0,0,0-3.5,0-3.5,0-3.9,0-4.1,2.7-4.1h1.5v7.4l-2.1.2h0ZM1646.6,691.6v-3.6c0,0,3.9-.5,3.9-.5v3.5c.2,2.5,0,3.6-.3,3.9-.3.2-1.3.4-2.2.4h-1.6v-3.7h.2ZM1646.1,748.7l1.6-.2c3.4-.4,3.2-.7,3.2,3.4v3.7l-1.5.3c-2.2.5-3.3-.7-3.3-3.4v-3.8h0ZM1646.1,763.8l2-.2c1.1,0,2.1-.2,2.3-.2s.5.4.6,1c.2.6.2,2.4,0,3.9v2.8c0,0-2.6,0-2.6,0h-2.5c0,0,0-7.4,0-7.4h0ZM1648.7,794.9c-1.4,0-2.6-.2-2.6-.5s1.2-.5,2.6-.5,2.6.2,2.6.5-1.2.5-2.6.5ZM1651.2,786.4h-5.2v-7.5h5.2v7.5ZM1659.7,794.4c-.5,0-.9-.2-.9-.5s.4-.5.9-.5.9.2.9.5-.4.5-.9.5ZM1659.7,785.9c-.8,0-.9-.3-.9-4s0-4,.9-4,.9.3.9,4,0,4-.9,4ZM1659.7,770.3c-.8,0-.9-.3-.9-3.8s0-3.8.9-3.8.9.3.9,3.8,0,3.8-.9,3.8ZM1659,755.2s-.2-1.8-.2-4c0-3.7,0-4,.9-4s.9.3.9,3.7-.3,4.3-1.7,4.3h0ZM1659.7,739.7c-.8,0-.9-.3-.9-3.8s0-3.8.9-3.8.9.3.9,3.8,0,3.8-.9,3.8ZM1658.8,724.6c-.5,0-.6-7.2,0-7.7,0-.2.7-.3,1.2-.3.8,0,.8.4.8,3.7s-.3,4.3-1.9,4.3h0ZM1659.5,709q-1.2,0-1.2-3.8,0-3.8,1.2-3.8,1.2,0,1.2,3.8,0,3.8-1.2,3.8ZM1658.8,693.9c-.7,0-.5-7.4.2-7.7,1.6-.7,1.7-.3,1.7,3.4s-.3,4.3-1.9,4.3h0ZM1659.5,678.3q-1.2,0-1.2-3.8,0-3.8,1.2-3.8,1.2,0,1.2,3.8,0,3.8-1.2,3.8ZM1658.3,659.5c0-3.8,0-4,2-4.2.2,0,.3,1.7.2,3.8,0,3.6-.2,3.9-1.2,4.1-1,0-1.1,0-1.1-3.6h0ZM1659.5,647.7c-.8.1-1.2-1-1.2-3.4,0-3.9,0-4.2,1.5-4.2s.8.4.8,3.7,0,3.7-1.2,3.9h0ZM1668.6,628.6c.7-.8,1.6-.3,1.6.8s-.2,1.2-.9,1.2-1.3-1.3-.6-2h0ZM1669.2,754.3c-.8,0-.9-.3-.9-4s0-4,.9-4,.9.3.9,4,0,4-.9,4ZM1670.1,765.8c0,3.7,0,4-.9,4s-.9-.3-.9-4,0-4,.9-4,.9.3.9,4ZM1669.2,738.7c-.8,0-.9-.3-.9-3.7s0-4.3,1.3-4.3.6,1,.6,4,0,4-.9,4h0ZM1669.2,723.1c-.8,0-.9-.3-.9-3.7s0-3.8.8-4c.4,0,.8-.2.9-.3v4c0,3.7,0,4-.9,4h0ZM1668.4,708s-.2-1.8-.2-4c0-3.7,0-4,.9-4s.9.3.9,3.7-.3,4.3-1.7,4.3h0ZM1668.2,688.5c0-3.8,0-4.1.9-4.1s1,.2.8,3.9c0,3.3-.3,3.9-.9,4.1-.8,0-.8-.3-.8-3.9ZM1669.2,676.9c-.8,0-.9-.3-.9-3.7s.2-4.1,1.6-4.2c.2,0,.3,1.7.3,4,0,3.7,0,4-.9,4h0ZM1669.2,661.5c-.9.2-.9,0-.9-3.7s0-4,.9-4,.9.3.9,3.7,0,3.7-.9,4ZM1668.4,646.2s-.2-1.8-.2-4c0-3.7,0-4,.9-4s.9.3.9,3.7-.3,4.3-1.7,4.3h0ZM1669.2,777.4c.8,0,.9.3.9,3.8s0,3.8-.9,3.8-.9-.3-.9-3.8,0-3.8.9-3.8ZM1669.4,793.9c-1.4,0-1.6-.8-.3-1.1,1.4-.4,1.5-.3,1.5.4s-.4.7-1.2.7h0ZM1700.2,621.6c3-.7,3.2-.6,3.3.2v1.5c0,.3-1.2.8-2.3.9-1.1.2-2.5.4-3.1.6-.9.2-1.1,0-1.1-1.2s0-1.4,3.2-2.1h0ZM1697,632.7l2.5-.5c4.4-.8,4.1-1.1,4.1,3.3s0,4.2-3.9,4.8l-2.7.3v-8h0ZM1697,648.6l2.7-.5c1.5-.3,2.9-.6,3.2-.7.3,0,.5-.2.6-.2v8.4l-3,.5c-1.7.3-3.2.5-3.3.5s-.3-1.8-.3-4v-4h.1ZM1697,664.3l3-.5c1.6-.3,3.1-.5,3.3-.6.2,0,.3,1.8.3,4.2v4.2l-2.7.3c-1.5.2-2.9.4-3.3.6-.5.2-.6-.7-.6-4v-4.2h0ZM1697,680.3l1.8-.3c.9-.2,2-.4,2.2-.5.3,0,.9-.2,1.6-.2q1,0,1,3.9c0,3.9,0,4.1-.3,4.2s-1.7.4-3.3.6l-3,.3v-8.1h0ZM1697,695.8l1.8-.2c.9,0,2.5-.2,3.3-.2h1.5v7.9l-1.5.2c-.8,0-2.4.4-3.3.5l-1.8.3v-8.5ZM1697,715.9v-4l2.3-.3c1.2,0,2.5-.4,2.9-.4s.8-.2,1.1-.2.3,1.8.3,4.2v4.2l-2.2.3c-4.7.6-4.4.8-4.4-3.7h0ZM1688.9,624.1c.5,0,.6.4.5,1.3-.2,1.7-1.8,2.1-1.8.5s.3-1.7,1.3-1.7h0ZM1678.8,626.3c1.1,0,1.6.6,1.1,1.8,0,.4-.7.7-1.2.7-1.4,0-1.3-2.2,0-2.5ZM1679.9,671.3c0,3.6-.2,3.9-1.2,4.1-1,0-1.1,0-1.1-3.9s0-4.1,1.2-4.1,1.2,0,1.1,3.9ZM1679.9,686.9c0,3.6-.2,3.9-1.2,4.1-1,0-1.1,0-1.1-3.9s0-4.1,1.2-4.1,1.2,0,1.1,3.9ZM1679.9,655.8c0,3.6-.2,3.9-1.2,4.1-1,0-1.1,0-1.1-3.9s0-4.1,1.2-4.1,1.2,0,1.1,3.9ZM1677.7,640.7c0-4,0-4.3,1.5-4.3s.9.3.8,3.9c0,3.6-.2,3.9-1.2,4.1-1,0-1.1,0-1.1-3.6h0ZM1678.1,792.8c0-.5.4-.8,1-.8s.9.2.8.6c-.3.9-1.8,1-1.8.2ZM1679.1,784.5c-.8,0-.9-.3-.9-4s0-4,.9-4,.9.3.9,4,0,4-.9,4ZM1679.1,768.9c-.8,0-.9-.3-.9-4s0-4,.9-4,.9.3.9,4,0,4-.9,4ZM1679.1,753.3c-.8,0-.9-.3-.9-4s0-4,.9-4,.9.3.9,4,0,4-.9,4ZM1679.1,737.8c-.8,0-.9-.3-.9-4s0-4,.9-4,.9.3.9,4,0,4-.9,4ZM1679.1,722.2c-.8,0-.9-.3-.9-4s0-4,.9-4,.9.3.9,4,0,4-.9,4ZM1678.9,706.6q-1.2,0-1.2-4,0-4,1.2-4,1.2,0,1.2,4,0,4-1.2,4ZM1687.6,792.3c0-.5.4-.8,1-.8s.9.2.8.6c-.3.9-1.8,1-1.8.2ZM1688.5,784c-.8,0-.9-.3-.9-4s0-4,.9-4,.9.3.9,4,0,4-.9,4ZM1687.6,764.2c0-4,0-4.3.9-4.3s1,.2.8,4.1c0,3.5-.3,4.2-.9,4.3-.8,0-.8-.3-.8-4.1ZM1688.5,752.4c-.8,0-.9-.3-.9-4s0-4,.9-4,.9.3.9,4,0,4-.9,4ZM1688.5,736.8c-.8,0-.9-.3-.9-4s0-4,.9-4,.9.3.9,4,0,4-.9,4ZM1687.8,721.3c-.3,0-.2-7.8,0-8.2,0-.2.6-.3.9-.3s.6,1,.6,4-.3,4.5-1.7,4.5h0ZM1688.5,705.2c-.8,0-.9-.3-.9-4s0-4,.9-4,.9.3.9,4,0,4-.9,4ZM1688.5,689.6c-.8,0-.9-.3-.9-4s0-4,.9-4,.9.3.9,4,0,4-.9,4ZM1689.3,673.6s-.5,0-.9.3c-.7.2-.8-.2-.8-3.7s.2-4.4,1.6-4.5c.2,0,.3,1.7.3,4s0,4-.2,4h0ZM1688.5,658.2c-.9.2-.9,0-.9-3.6s0-4.5,1.3-4.5.6,1,.6,4,0,4-.9,4.2h0ZM1688.5,642.5c-.8,0-.9-.3-.9-4s0-4,.9-4,.9.3.9,4,0,4-.9,4ZM1697.3,727.6l2.4-.3c1.3,0,2.7-.3,3.2-.3s.8.4.8,4.2v4.2h-1.5c-.8,0-2.4,0-3.3.3l-1.8.3.3-8.4h0ZM1701.4,792c-1.3,0-2.7,0-3.3.3-.8.2-1.1,0-1.1-.4s.6-.8,1.8-.9c4-.4,4.8-.3,4.8.4s-.6.7-2.2.7h0ZM1703.6,783.1h-1.5c-.8,0-2.4,0-3.3.3l-1.8.3v-8.6l2.7-.2c1.5,0,3-.2,3.3-.2s.6,1,.6,4.2v4.2h0ZM1703.6,766.9l-1.5.3c-.8,0-2.3.3-3.3.3h-1.8v-4c0-4.5,0-4.4,4.2-4.5h2.5v7.8h0ZM1703.5,747.1v4.2c0,0-3.3,0-3.3,0h-3.2c0,0,0-7.9,0-7.9l1.8-.2c.9,0,2.5-.2,3.3-.2h1.6v4c0,0-.2,0-.2,0ZM1838.5,780.3v3.9c0,0-4,0-4,0h-3.9c0,0,0-7.4,0-7.4l3-.2c1.6,0,3.4-.2,4-.2,1,0,1.1,0,.9,3.8h0ZM1830.5,769.4v-7.5l1.8-.2c.9,0,2.6-.2,3.8-.2h2v7.3l-2.2.3c-1.2,0-2.9.3-3.8.3h-1.6ZM1833.3,738.7h-2.7v-7.5l2.7-.2c1.5,0,3.2-.2,3.8-.2q1,0,1,3.6c0,3.6,0,4.3-4.8,4.3h0ZM1832.8,700.7c1.5,0,3-.4,3.4-.4,1.8-.4,1.9-.4,1.9,3.7v4h-1.8c-1,0-2.8,0-4,.3l-2.2.3v-7.6l2.7-.3ZM1830.1,693.4v-7.5l1.6-.2c3.2-.5,3.9-.6,5.2-.7h1.3v7.5l-2.2.3c-1.3,0-3.1.4-4,.5l-1.8.2h0ZM1838.1,677.2l-8,.8v-7.7l2-.2c1.1,0,2.9-.2,4-.2h2v7.3h0ZM1832.3,639.9c1.2-.2,2.5-.4,2.7-.5.3,0,.9-.2,1.6-.2,1,0,1,0,1,3.7v3.7l-1.5.2c-.8,0-2.5.4-3.8.6l-2.3.3v-7.6l2.3-.3h0ZM1830.1,628.8c0-2.1,0-3.8,0-3.9,0,0,1.7-.3,3.6-.6,1.9-.4,3.6-.7,3.7-.7v7.9l-2.7.3c-1.5,0-3.2.4-3.8.6-1,.2-1.1,0-1.1-3.6h.2ZM1833.3,654.9c1.7-.3,3.4-.5,3.8-.6.4,0,.6,1,.6,3.7s0,3.9-.3,4c-.2,0-1.9.4-3.8.6l-3.4.3v-7.5l3.2-.4h0ZM1831.4,599.2c.9,0,2.5-.5,3.4-.7,2.7-.6,2.8-.6,2.8.9s0,1.3-3.3,1.9c-4.6.7-4.8.7-4.8-.7s.3-1.2,1.8-1.5h0ZM1817.8,649.3l-3.3.3v-3.6c0-3.3,0-3.6,1.1-3.8,1.8-.4,3.3-.6,5.2-.7h1.7v3.4c0,4,.2,3.8-4.7,4.3h0ZM1822.5,656.6v3.5c0,1.9,0,3.6-.3,3.7s-2,.4-4,.6l-3.7.3v-3.6c0-3.3,0-3.6,1.1-3.8,1.8-.4,3.3-.6,5.2-.7h1.7ZM1817.5,634.3l-3,.4v-3.7c0-2,0-3.7,0-3.7,0,0,1.7-.3,3.6-.6q4.2-.7,4.2,3.8c0,3.3.4,3.1-5,3.8h.1ZM1814.5,619.6v-7.3l1.6-.3c.8,0,2.5-.4,3.6-.6l2.1-.4v3.5c.2,1.9.2,3.6,0,3.8,0,0-1.8.5-3.8.8l-3.5.5h0ZM1814.6,603.3c0-1.1.4-1.3,3-1.7,4.3-.8,4.5-.8,4.5.5s0,1.2,0,1.2c0,0-1.8.3-3.8.6l-3.7.6v-1.2h0ZM1801.7,659.2c1.2-.2,2.5-.4,2.7-.5.3,0,.9-.2,1.6-.2q1,0,1,3.7c0,3.7,0,3.8-.9,3.8s-2.2,0-3.8.3l-2.9.3v-7.2l2.3-.3h0ZM1799.4,648.2v-3.8l3.2-.4c1.7-.3,3.4-.5,3.8-.6.4,0,.6,1,.6,3.7v3.7l-2.9.3c-1.7,0-3.3.4-3.8.5-.8.2-.8,0-.8-3.5h0ZM1799.5,678v-3.7c0,0,2.3-.3,2.3-.3,1.2,0,2.8-.3,3.7-.3h1.5v3.4c0,4,.3,3.7-4.9,4.2l-2.7.3v-3.7h0ZM1801.7,604.3c4.4-.8,5.3-.7,5.3.3s-.5,1.2-3.5,1.7c-1,.2-2.5.4-3.2.6-1.2.2-1.3,0-1.3-.9s.3-1.2,2.7-1.7h0ZM1798.9,614.7l2.3-.3c1.2-.2,2.5-.4,2.7-.5.3,0,1-.2,1.8-.2h1.3v3.4c0,4,.3,3.7-5,4.3l-3,.3v-7.2.2ZM1784.9,607.3c.9-.2,5.1-1,6.1-1.1.2,0,.3.5.3,1.1,0,1-.3,1.1-2.4,1.4-1.4.2-3.1.5-3.8.6-1.2.2-1.4,0-1.4-.8s.4-1,1.1-1.2h.1ZM1783.8,617.1l2.7-.5c5.1-.8,4.8-1,4.8,2.9s.2,3.7-4.9,4.3l-2.7.3v-7.1h0ZM1791.4,634.4v3.7l-3.2.3c-1.7.2-3.4.4-3.8.6-.5.2-.6-.5-.5-3.4v-3.7c0,0,3.4-.5,3.4-.5,1.8-.3,3.4-.6,3.7-.6s.3,1.6.3,3.7h0ZM1783.8,646.8l2.3-.3c1.2-.2,2.5-.4,2.7-.5.3,0,.9-.2,1.6-.2s1,.2,1,2,0,2.7.3,3.5c.3,1.6.7,1.4-5.6,2.3l-2.3.3v-7.1ZM1783.8,661.5l3.4-.5c1.8-.3,3.7-.5,4-.6.4,0,.6.9.6,3.4s0,3.6-.3,3.7-2,.4-4,.6l-3.7.3v-7h0ZM1783.8,680c0-3.3,0-3.6,1.1-3.8,1.4-.3,3.5-.6,5.4-.7h1.5v6.9l-2.2.3c-1.3.2-3.1.4-4,.6l-1.8.3v-3.6ZM1776.7,724.9v3.7c0,0-2.6,0-2.6,0h-2.5c0,0,0-6.9,0-6.9l2-.2c1.1,0,2.3-.2,2.6-.2.5,0,.6.8.5,3.5h0ZM1774.8,662.8h1.5v7h-1.6c-.9,0-1.9,0-2.4.3-.7.2-.8-.2-.8-3.3s0-3.9,3.2-4.1h.1ZM1771.6,655.4v-3.4c0-3.7,0-3.6,3.3-4,1.1,0,1.2,0,1.3,2.9v3.6c0,.3-1.2.7-2.4.8h-2.2ZM1775,677.4h1.3v3.5c0,3.2,0,3.5-.9,3.5s-1.6,0-2.4.3l-1.5.3v-3.5q0-3.9,3.4-4.1h0ZM1772.9,692.3c3.5-.5,3.4-.7,3.4,3.2s-.2,3.5-.6,3.5-1.4,0-2.4.3l-1.8.3v-3.6c0-3.5,0-3.6,1.3-3.8h0ZM1773.4,707c.9,0,2-.2,2.4-.2s.6.9.6,3.4c0,3.8-.2,4.1-3.4,4.1h-1.3v-7l1.8-.2h0ZM1773.1,609.3c.8,0,1.8-.2,2.1-.2s.6.3.6.8-.5.9-1.5,1.2c-2.3.5-2.8.3-2.8-.6s.4-1,1.6-1.1h0ZM1771.6,618.9l1.6-.2c3.4-.4,3.2-.7,3.2,3.2v3.4l-1.5.3c-2.2.4-3.3-.7-3.3-3.2v-3.5h0ZM1771.7,637.1v-3.4c0,0,2-.3,2-.3,1,0,2-.3,2.3-.4.2,0,.3,1.5.3,3.4,0,3.8-.2,4.1-3.4,4.1h-1.3v-3.4h0ZM1774.2,797.7c-2.5,0-2.6,0-2.6-1.1s.2-1.2,2.5-1.4c1.3,0,2.5-.2,2.6-.2v1.3q0,1.4-2.6,1.4h0ZM1773.1,787.8h-1.6v-7l1.8-.2c.9,0,2.1-.2,2.6-.2s.8.4.8,3.4-.2,4.1-3.6,4.1h0ZM1776.8,769.1c0,3.4,0,3.5-1.1,3.5s-1.8,0-2.6.3l-1.5.3v-3.5q0-3.9,3.7-4.1h1.5v3.5ZM1776.8,758.1h-1.8c-1,0-2.2,0-2.6.3-.7.2-.8-.2-.8-3.3s0-4,3.2-4.1h2v7h0ZM1776.8,743.4h-5.2v-7.1h5.2v7.1ZM1783.8,691.1l2.7-.3c1.5,0,3-.4,3.4-.4,1.8-.4,1.9-.3,1.9,3.5s0,3.8-1.1,3.8-2.4,0-4,.3l-2.9.3v-7.2h0ZM1791.8,705.2v3.5c0,2.5-.2,3.5-.6,3.6-.3,0-2,0-3.8.4l-3.2.3v-7.3l2-.2c1.1,0,2.8-.2,3.8-.2h1.8ZM1788.3,720.2c1,0,2.3-.2,2.7-.2.7,0,.8.4.8,3.7v3.8h-2c-1.1,0-2.8,0-3.8.3l-1.8.3v-3.6c0-4,0-3.9,4-4.2h.1ZM1790.1,742.2c-1,0-2.7.3-3.8.3h-2v-7l1.8-.2c.9,0,2.6-.2,3.8-.2h2v6.8l-1.7.3h-.1ZM1791.8,753.3v3.8h-2.3c-1.3,0-3,0-3.8.3l-1.5.3v-7.6l3-.2c1.6,0,3.3-.2,3.8-.2s.8.4.8,3.7h0ZM1792.3,797.2h-4c-3.9,0-4,0-4-1.1s.6-1.6,4.9-1.7h3.2v2.8h0ZM1792.3,786.8h-8v-7l3.2-.2c1.7,0,3.5-.2,4-.2s.8.4.8,3.7v3.8h0ZM1792.3,771.6l-2.5.3c-1.4,0-3.2.3-4,.3h-1.6v-7l1.6-.2c.8,0,2.6-.2,4-.2h2.5v6.8h0ZM1798.9,633.3c0-2,0-3.6,0-3.6,0,0,6.6-1.1,7.5-1.3.2,0,.3,1.7.3,3.7v3.7l-1.7.3c-1,0-2.8.4-4,.6l-2.3.3v-3.6h0ZM1807.3,794.9v1.6c0,0-3.8,0-3.8,0h-3.7c0,0,0-1.3,0-1.3,0-1.5.4-1.7,5.6-1.8,1.3,0,2,.5,1.9,1.4ZM1799.8,771.4l.3-7.5,7.1-.5v3.5c.2,1.9.2,3.5,0,3.6,0,0-1.8.3-3.8.5l-3.7.3h0ZM1807.4,785.9h-2c-1.1,0-2.8,0-3.8.3l-1.8.3v-7.6l3-.2c1.6,0,3.3-.2,3.8-.2s.8.4.8,3.7v3.8h0ZM1807.4,752.1c0,4,0,4.1-4.8,4.1h-2.7v-3.5c0-4-.2-3.8,5.1-4h2.5v3.4h0ZM1807.4,741.1h-2.5c-1.4,0-3.2,0-4,.3l-1.5.3v-7.6l2.3-.2c1.2,0,3-.2,4-.2h1.7v7.5h0ZM1807.4,726h-1.5c-.8,0-2.7,0-4.1.3l-2.5.3.3-7.5,2.6-.3c1.4,0,3.2-.3,3.9-.3h1.3v7.5h0ZM1807.4,710.7l-2.5.3c-1.4,0-3.2.3-4,.3h-1.6v-7l2-.2c1.1,0,2.6-.3,3.4-.4.8,0,1.7-.2,2-.3.4,0,.6,1,.6,3.7v3.7h0ZM1804.7,696c-1.5,0-3.3.4-4,.5l-1.3.3v-7.5l3.7-.4,3.6-.4.3,1.7c.2.9.3,2.5.3,3.6v2l-2.6.3h0ZM1814.7,672.4l2.1-.3c1.2,0,2.9-.3,3.9-.3h1.7v3.7c0,3.6,0,3.8-1.1,3.8s-2.4,0-4,.3l-2.9.3.3-7.5ZM1821.2,694.4c-.8,0-2.5,0-3.8.3l-2.5.3v-7.6l2.3-.2c1.2,0,2.9-.2,3.8-.2h1.5v7.5h-1.3ZM1822.5,701.9v7.4l-2.9.3c-5,.5-4.7.8-4.7-3.4v-3.8l2.3-.2c1.2,0,2.9-.2,3.8-.2h1.5,0ZM1815,721.3v-3.8l2.3-.2c1.2,0,2.9-.2,3.8-.2h1.5v7.3l-2.9.3c-5,.5-4.7.8-4.7-3.4h0ZM1820.5,796c-4.8.6-5.1.5-5.1-1.4v-1.6l3-.2c1.6,0,3.3-.2,3.8-.2s.8.3.8,1.5,0,1.6-2.5,1.9h0ZM1823,784.8l-1.7.3c-3.3.5-5.7.3-6-.5,0-.4-.3-2.1-.3-3.7v-3l3-.2c1.6,0,3.4-.2,4-.2q1,0,1,3.6v3.7h0ZM1823,769.7l-2.5.3c-1.4,0-3.2.3-4,.3h-1.6v-7.5l2.7-.2c1.5,0,3.3-.2,4-.2h1.3v7.3h0ZM1823,754.6l-2.9.3c-5.5.6-5.1.8-5.1-3.4v-3.8l2.5-.2c1.3,0,3.2-.2,4-.2h1.5v7.3h0ZM1823,739.5l-2.9.3c-5.5.6-5.1.8-5.1-3.4v-3.8l2.5-.2c1.3,0,3.2-.2,4-.2h1.5v7.3h0ZM1829.8,617.1c0,0-.2-1.8-.2-3.7,0-3.2,0-3.5,1.1-3.7,1.4-.3,5.6-1,6.4-1.1.4,0,.6,1,.6,3.7v3.8c-2.4.5-7.5,1.1-7.7,1h-.2ZM1830,716.1l2.1-.2c1.1,0,2.9-.2,4.1-.2h2v7.4l-3.5.3c-2,.2-3.6.3-3.7.2,0,0-.3-1.8-.5-3.8l-.3-3.6h-.2ZM1835.3,746.2h2.6c0,0,0,3.6,0,3.6v3.8s-1.8.2-3.8.4l-3.7.3v-3.8c0-4.3,0-4.2,4.7-4.3h.1ZM1838.6,795.3h-2.9c-1.7,0-3.4,0-4,.3-1,.3-1.1,0-1.1-1.7v-1.9h8v3.3h0ZM1846.8,794.9c-.5,0-.7-.5-.7-1.7s.2-1.7.7-1.7.7.5.7,1.7-.2,1.7-.7,1.7ZM1846.8,784c-.6,0-.7-.8-.7-4s0-4,.7-4,.7.8.7,4,0,4-.7,4ZM1846.8,768.4c-.6,0-.7-.7-.7-3.7s0-3.9,1.3-4.2v4c0,3.3,0,4-.7,4h0ZM1845.8,753.3s-.2-1.8-.2-4c0-3.7,0-4,.9-4s.9.3.9,3.7-.3,4.3-1.7,4.3h0ZM1846.6,737.8c-.8,0-.9-.3-.9-3.7s.2-4.1,1.6-4.2c.2,0,.3,1.7.3,4,0,3.7,0,4-.9,4h0ZM1846.6,722.2c-.8,0-.9-.3-.9-3.8s0-3.8.9-3.8.9.3.9,3.8,0,3.8-.9,3.8ZM1846.6,707.1c-.8,0-.9-.3-.9-4s0-4,.9-4,.9.3.9,4,0,4-.9,4ZM1846.6,691.5c-.8,0-.9-.3-.9-3.8s0-3.8.9-3.8.9.3.9,3.8,0,3.8-.9,3.8ZM1845.6,672.5c0-3.8,0-4.1.9-4.1s1,.2.8,3.9c0,3.3-.3,3.9-.9,4.1-.8,0-.8-.3-.8-3.9ZM1846.6,660.9c-.8,0-.9-.4-1.1-3.8,0-3.4,0-3.8.8-3.9.5,0,1-.2,1.1-.3v4c0,3.6,0,4-.9,4h0ZM1845.6,645.8c-.5,0-.6-7.2,0-7.7,0-.2.7-.3,1.2-.3.8,0,.8.4.8,3.7s-.3,4.3-1.9,4.3h0ZM1846.3,630.2q-1.2,0-1.2-3.7c0-3.7,0-3.9,2-4.2.2,0,.3,1.7.3,4q0,4-1.2,4h0ZM1847.1,614.6c-.2,0-.8,0-1.2.3-.7.2-.8-.3-.8-3.8s0-4.1,1.2-4.1,1.2,0,1.2,3.8-.2,3.8-.4,3.8h0ZM1846.3,599.5c-1,0-1.2-.2-1.2-1.4s.2-1.5,1.1-1.6c.6,0,1.1-.2,1.2-.3v1.6c0,1.5,0,1.7-1.2,1.7h0ZM977.4,701.7c-1.2-3.2-2.2-5.9-2.3-5.9s-2.9-.6-6.4-1.2l-6.4-1.1-9.9,1c-5.4.6-10.3,1.1-10.7,1.1-.7,0-.8.5-.8,3.3v3.3s-2.9.4-6.3.8l-6.1.8-.3,10.6c-.2,5.9-.3,15.3-.4,21v10.4l-3.2,3.9c-1.7,2.1-3.3,3.8-3.3,3.7,0,0-1-38.1-2-84.3l-1.8-84.2-2-2c-1.1-1.1-2.4-2-2.9-2s-21.4,4.2-46.5,9.2c-42.1,8.5-46.7,9.3-60.2,10.9-8,.9-14.8,1.9-15,2.1-.2.2-.6,2.4-.8,4.8-.2,2.5-.5,4.5-.5,4.5,0,0-5,0-11.2,0h-11.2l-32.1,5.5c-17.6,3-32.3,5.7-32.5,5.9-.4.4-1.6,102.2-1.7,140.4v16.7h-32.5l-.3-3c-.4-3.8-2.6-42.5-2.6-44.8v-1.8l-4.2-1.9-4.2-1.9v-80.9l-.2-81-15.1-10.5c-8.3-5.8-15.5-10.5-16-10.5s-8.7,1.8-18.3,4.2c-9.5,2.3-17.4,4.2-17.6,4.2s-.3-4.8-.3-10.8v-10.7l-13-8.2c-7.2-4.5-13.4-8.2-13.8-8.3-.4,0-9.9,2.8-21.1,6.4l-20.3,6.5v64.2c0,0-.2,64.2-.2,64.2l-12.5,6.2-12.5,6.3v130h-20.8v-148.6h-4.2v-17.7l-.2-17.8-16.7-7-16.7-7-17.5,5.8c-9.6,3.1-18.8,6.1-20.4,6.6l-3,.9v81.6h-6.6v-59.9l-1-.2c-.6,0-16.5-2.6-35.3-5.4-18.8-2.9-34.7-5.3-35.2-5.4-.9-.2-2.1,1.2-8.9,10.1l-7.8,10.4v29.7c0,28.2,0,29.8-.8,29.5-.5,0-9.5-2-20.1-4.1l-19.2-3.9-11.7,3.3-11.7,3.3-.2,19.3-.2,19.3-3.5,4.3-3.5,4.3h-2.4c-1.3,0-3.8,0-5.5-.3l-3.2-.3v-62.1l-1-.2c-.6,0-22.2-5-48-10.8l-46.9-10.5-11.2,3.7-11.3,3.8v83.9h-3.4c-1.9,0-6.1,0-9.4.3l-6,.3v-48.4l-6-11.7c-4.4-8.6-6.3-11.8-7-12-.5,0-2-.3-3.4-.5l-2.4-.2-5.2,9.8-5.2,9.8v7.3l-1.5-.2c-.8,0-5.8-.6-10.9-1.2l-9.4-.9-9.7,1.5c-5.3.8-9.8,1.6-9.8,1.6,0,0,1.4,2,3.3,4.4,1.8,2.5,3.2,4.5,3.1,4.5,0,0-3.6,1.6-7.8,3.4l-7.6,3.3v48.6l.2,48.6h488.5c0,0,488.4.2,488.4.2v-118.3l-2.2-5.8-.7-.2ZM213.1,693.2c1.3.3,1.5.5,1.7,2.1.1,1.8,0,2-2.1,1.5-.9-.2-1.1-.6-1.1-2.1s0-1.7,1.6-1.5h0ZM179.9,688.5c0-1.4,1.6-1.7,4.7-1l3.3.8v1.9c0,1.3-.2,1.8-.6,1.7-.3,0-2.2-.5-4-.8l-3.4-.6v-2ZM179.9,699.5c0-1.4,0-1.6,1.1-1.4.6,0,2.4.5,4,.8,2.9.5,2.9.6,2.9,2v1.5l-4-.7-4-.7v-1.7.2ZM179.9,708.8l1.9.3c1.1.2,2.9.6,4.2.9,1.8.4,2.2.7,2.3,1.8q.2,1.5-4.7.8l-3.7-.5v-3.3ZM164.8,683.4c.2,0,2,.3,4,.8l3.5.8v1.8q0,2.2-6.9.6c-.9-.2-1.1-.6-1.1-2.1s.2-1.9.5-1.9h0ZM171.8,710.5c-.3,0-2.2-.4-4-.7l-3.4-.6v-1.6c0-1.8-.1-1.8,3.6-1.1q4.4.8,4.4,2.5c0,1.7-.2,1.6-.6,1.4h0ZM172.4,720c0,1.4-.1,1.6-.8,1.5-.5,0-1.7-.4-2.7-.5q-4.5-.7-4.5-2.5c0-1.8,0-1.6,1.3-1.4.7,0,2.1.4,3.2.6,3.4.5,3.5.6,3.5,2.4h0ZM168.2,695.6q3.9.8,4.1,2.3c.2,1.7-.2,1.8-4.9.9q-2.8-.6-3-2.3v-1.7c-.1,0,3.8.8,3.8.8h0ZM148.6,680.1c.2,0,2.1.4,4.3.8l3.9.8v2c0,1.9,0,2-1,1.8-.6,0-2.5-.5-4.2-.8l-3.1-.6v-2c-.2-1.1-.1-2,0-2h.1ZM148.7,691.9c.2,0,2.1.3,4.2.8l3.9.8v1.6q0,2-7.4.4c-.9,0-1.1-.5-1.1-1.8s.1-1.7.4-1.7h0ZM148.3,702.9l4.2.8,4.1.8v1.8c.3,1.7.2,1.8-1,1.5-.7,0-2.6-.5-4.2-.8l-3-.6v-3.5h-.1ZM148.3,715.8c0-1.6.1-1.8.8-1.6.4,0,2.4.5,4.2.8l3.4.6v1.6c0,1.8.1,1.8-4.8,1l-3.7-.5v-1.8h.1ZM132.7,678.8c0-2,0-2.1,1.1-1.9.6,0,2.4.5,4,.8l2.9.6v2.1c0,2,0,2.1-1,1.9-.6,0-2.4-.5-4-.8l-3-.6v-2.1ZM121.4,676.5v-2.1l1.6.3c.8.2,1.7.4,1.9.6.2,0,.3,1,.3,2.1,0,1.9-.4,2.2-2.7,1.6-.9-.2-1.1-.6-1.1-2.4h0ZM124.1,690.7c-.6,0-1.4-.3-1.7-.3s-.6-.7-.6-1.9c0-1.9.6-2.4,2.5-1.6.5.2.8.9.8,2.2s0,1.9-1,1.6ZM125.2,700.4c0,1.6,0,1.9-.9,1.9-1.9,0-2.4-.5-2.4-2.5s0-1.9,1.1-1.6c.6,0,1.3.3,1.7.3s.6.7.6,1.9h0ZM122.9,791.1c0-1.1.2-1.3,1.5-.8.4,0,.8.7.8,1.2,0,1.4-2.1.9-2.3-.5h0ZM124,782.5c-1,0-1.2-.2-1.2-1.9s0-1.9,1.2-1.9,1.2.2,1.2,1.9,0,1.9-1.2,1.9ZM124,771.1c-1,0-1.2-.2-1.2-1.9s0-1.9,1.2-1.9,1.2.2,1.2,1.9,0,1.9-1.2,1.9ZM123.1,759.5c-.5-.2-.8-.9-.8-2.1,0-1.9,0-2,1.8-1.6.8.2,1,.6,1,2.1s-.4,2.2-2.1,1.6h0ZM122.3,746.1c0-1.8,0-1.9,1.3-1.7,1.1,0,1.3.4,1.4,1.9,0,1.7,0,1.8-1.3,1.8s-1.5,0-1.5-1.9h0ZM123.8,736.7q-1.4,0-1.4-2,0-2,1.4-1.8c1.3.2,1.4.4,1.4,2s0,1.8-1.4,1.8ZM124.4,725.4c-1.4,0-1.9-.6-2.2-2.5-.3-1.8,0-2,1.9-1.5.8.2,1,.6,1,2.1s-.2,1.8-.8,1.8h0ZM123.5,713.7c-1.6-.2-1.7-.2-1.7-2.2v-2l1.6.3c1.4.3,1.5.5,1.7,2.2v1.9c0,0-1.6-.2-1.6-.2ZM135.2,793c-2-.3-2.5-.5-2.5-1.2s.3-.8,3-.6c1.6,0,3.4.3,4,.5.6,0,1,.5,1,.9,0,.8-1.5.9-5.5.4h0ZM140.7,784.2l-3.4-.3c-1.9-.2-3.7-.4-4-.4s-.6-.8-.6-1.9v-1.9l2.5.3c1.3,0,3.2.4,4,.5,1.4.2,1.5.4,1.5,2v1.8h0ZM140.7,772.8l-3.2-.3c-1.8-.2-3.6-.4-4-.4-.7,0-.8-.5-.8-2v-1.9l1.8.3c.9,0,2.7.4,4,.5q2.2.3,2.2,2.1v1.7h0ZM139.9,761.5c-.5,0-2.3-.3-4-.5l-3.2-.3v-3.8l2.3.3c1.2.2,3,.4,4,.6q1.7.3,1.7,2.2c0,1.9-.1,1.8-.8,1.6h0ZM139.9,750.2c-.5,0-2.3-.4-4-.6l-3.2-.3v-3.8l2.5.3c1.3.2,3.2.4,4,.6,1.4.3,1.5.4,1.5,2.2s-.1,1.8-.8,1.6ZM140.7,737.3c0,1.7,0,1.8-1,1.6-.6,0-2.4-.4-4-.6l-3-.3v-1.8q0-2.1,4.8-1.3l3.3.6v1.9h-.1ZM140.7,727.7l-2-.3c-6.2-.9-5.8-.8-5.9-2.7q-.2-2,4.7-1.2l3.3.6v3.6h-.1ZM140.7,716.4l-2-.3c-6.3-.9-5.8-.7-5.9-2.9v-1.9c-.1,0,3.3.7,3.3.7,1.9.4,3.7.7,4.1.7s.6.7.6,1.9v1.9h-.1ZM140.7,703.3q0,1.8-1.3,1.6c-.8,0-2.2-.4-3.2-.6-3.4-.5-3.5-.6-3.5-2.6s.2-1.8.6-1.7c.3,0,2.1.5,4,.8l3.4.6v1.8h0ZM135.5,692.8l-2.7-.5v-1.9c0-1.3.2-1.8.6-1.7.3,0,2.1.5,4,.8l3.4.6v1.8c0,2.1.6,2-5.3.8h0ZM153.1,794.4c-4.4-.2-4.9-.4-4.9-1.3s2-.7,7,0c.8,0,1.5.5,1.5.8,0,.5-.8.6-3.6.4h0ZM156.8,785.6l-3.6-.4c-2,0-4-.3-4.2-.3-.4,0-.6-.7-.6-1.7,0-1.6,0-1.7,1.8-1.7s2.9,0,4.2.3l2.5.3v3.4h0ZM156.8,774.5l-3.2-.3q-5.3-.5-5.3-2.4v-1.7l3.4.3c1.8,0,3.8.4,4.2.5.6.2.8.8.8,1.9v1.7h.1ZM156.8,763.4l-4.2-.5-4.2-.4v-1.9c0-1.2.5-1.7,1.6-1.6.8,0,2.7.4,4.2.6l2.7.3v3.5h-.1ZM155.3,752.1c-.8,0-2.8-.4-4.2-.6l-2.7-.3v-1.9c0-1.6.1-1.8.8-1.6.4,0,2,.3,3.4.5,4.1.5,4.2.6,4.2,2.5s0,1.7-1.5,1.4h0ZM156.8,741.1l-3.2-.3c-5.1-.5-5.3-.6-5.3-2.5s0-1.8,5-1.1l3.5.5v3.3h0ZM156.8,728.4c0,1.1-.6,1.6-1.7,1.4-1,0-2.8-.4-4.2-.6-2.3-.3-2.4-.4-2.5-2.1-.2-2-.3-1.9,3.5-1.3,5.1.9,4.9.8,4.9,2.6h0ZM168.2,728.5c2.2.4,4,.7,4.1.7s0,.8,0,1.7v1.7l-2-.3c-6.2-.9-5.8-.8-5.9-2.6v-1.7c-.1,0,3.8.6,3.8.6h0ZM168.7,764.8c-2-.2-3.8-.4-4-.6-.2,0-.4-.9-.4-1.8,0-1.4.1-1.6.8-1.4.4,0,2.2.4,4,.6l3.2.3v3.3l-3.6-.3h0ZM172.4,774.2c0,1.6,0,1.7-1.5,1.7s-2.7,0-4-.3c-1.7-.2-2.5-.9-2.5-2v-1.7l2.9.3c1.6,0,3.4.3,4,.3,1,0,1.1.2,1.1,1.7ZM169.7,754c-5.2-.6-5.3-.7-5.3-2.5s0-1.7,1.6-1.4c.8,0,2.6.4,4,.6,1.7.2,2.5.8,2.5,1.9v1.7l-2.7-.3h-.1ZM170.6,743.1c-1,0-2.8-.4-4-.6-2.2-.3-2.3-.3-2.3-1.9s0-1.8,4.8-1.1l3.3.6v1.6c0,1.6,0,1.7-1.7,1.4h-.1ZM164.3,784.5v-1.7l3.4.3c1.8.2,3.7.4,4,.5s.6.9.6,1.8v1.6l-2-.2c-6.4-.7-6-.6-6-2.4h0ZM171.5,795.7c-3.5,0-7.1-.6-7.1-1.2s.4-.7,6.5,0c2.2.3,2.7,1.1.6,1.1h0ZM182.4,730.8c1.4.2,3.3.5,4.2.7,1.4.3,1.6.5,1.7,1.8,0,1-.5,1.4-1.7,1.3-1-.2-2.8-.4-4.2-.6-2.3-.3-2.4-.4-2.5-1.9v-1.6c-.1,0,2.4.3,2.4.3h.1ZM185.5,796.8c-3.7-.2-5.1-.5-5.1-1s1.1-.4,6,.2c3.1.4,2.4,1-.9.8ZM188.4,788.5l-2-.2c-6.3-.7-6-.6-6-2.3v-1.5l3.2.3c1.7.2,3.5.4,4,.4s.8.4.8,1.7v1.6ZM188.4,777.8l-2.7-.3c-5.1-.6-5.3-.7-5.3-2.2s.2-1.6,5.1-1.1l2.9.3v3.2h0ZM188.4,767l-2.9-.3c-5.4-.5-5.6-.6-5.6-2.2v-1.5l3.9.4c2.2.2,4.1.4,4.2.5.2,0,.4.9.4,1.7v1.4h0ZM188.4,756.2l-3.4-.3c-4.8-.5-5.1-.6-5.1-2.3v-1.4l3.2.3c1.7,0,3.6.4,4.2.6.8.2,1,.6,1,1.7v1.5h.1ZM188.4,744.1c0,1.5,0,1.6-1.3,1.3-.8,0-2.6-.4-4.2-.6-2.8-.3-2.8-.4-3-1.9q-.2-1.7,4.9-1l3.5.5v1.6h.1ZM183.4,723.3q-3.3-.6-3.4-2.1c-.2-1.7,0-1.7,3.8-1,1.4.3,3,.6,3.6.8.8,0,1,.5,1,1.6,0,1.6,0,1.7-5,.8h0ZM195.5,691.6c0-1.9.2-2,5.1-.9l3.3.8v3.6l-3.2-.7c-5.7-1.2-5.3-1-5.3-2.8h0ZM200,757.7l-4-.4v-1.7c0-1.4,0-1.6,1.1-1.4.6,0,2.4.4,4,.6q2.9.3,2.9,1.8v1.5l-4-.4h0ZM204,767.5q0,1.4-1.7,1.1c-1,0-2.8-.4-4-.5-2.1-.3-2.3-.4-2.3-1.7v-1.4l3.2.3c1.7.2,3.5.5,4,.6.5.2.8.7.8,1.7h0ZM201.5,747.4c-5.4-.7-5.6-.8-5.6-2.2s0-1.6,4.8-.8c3.2.6,3.3.6,3.3,2v1.4l-2.5-.3h0ZM202,736.9c-6.1-.9-5.8-.8-5.9-2.5-.1-1.3,0-1.5.7-1.3.5,0,1.9.4,3.2.6,3.7.5,4,.6,4,2.2s0,1.4-2,1.1h0ZM203.4,726.6c-.3,0-2.2-.4-4-.7q-3.4-.6-3.4-2c0-1.4,0-1.5,2-1.1,1.1.2,2.9.5,4,.6,1.9.2,2,.3,2,1.8s-.2,1.5-.6,1.4ZM199.2,715.3c-3-.6-3.1-.6-3.2-2.1-.1-1.3,0-1.5.7-1.3.5,0,2.3.5,4.1.8,3.1.5,3.2.6,3.2,1.9s-.1,1.6-4.7.7h-.1ZM203.9,705.6s-1.8-.3-3.8-.7-3.8-.7-3.9-.7-.2-.7-.2-1.5c0-1.7-.2-1.6,5.8-.3,2,.4,2.2.6,2.2,1.8v1.4h-.1ZM204.3,797.8c-.4.4-8.4-.4-8.4-.8s2.2-.2,6.5.3c1.1,0,2,.4,1.8.5h0ZM202.2,789.7c-6.7-.7-6.3-.6-6.3-2.1v-1.4l3.9.3c2.1,0,4,.4,4.2.5.2,0,.3.8.3,1.6q0,1.4-2.2,1.1h.1ZM204.4,779.3l-3.2-.3c-1.8-.2-3.7-.3-4.2-.3-.9,0-1.1-.2-1.1-1.7s0-1.7,1.1-1.5c.6,0,2.5.4,4.2.6,3.1.3,3.2.4,3.2,1.8v1.4ZM213,790.6c-1.3-.3-1.5-3.1-.1-2.9.5,0,.8.7.9,1.7.1,1.3,0,1.5-.8,1.2h0ZM213.2,780.1c-1,0-1.2-.2-1.2-1.5s.1-1.4,1.1-1.3c.8,0,1.1.5,1.2,1.4.1,1.1,0,1.3-1,1.3h-.1ZM213.2,769.7c-1,0-1.2-.2-1.2-1.5s.1-1.4,1.1-1.3c.8,0,1.1.5,1.2,1.4.1,1.1,0,1.3-1,1.3h-.1ZM212.9,759.3c-1.3,0-1.4,0-1.4-1.4s.1-1.4,1.4-1.4,1.4,0,1.4,1.4-.1,1.4-1.4,1.4ZM213.1,748.9c-1,0-1.4-.4-1.5-1.5s0-1.3,1.3-1.3,1.5,0,1.5,1.5-.1,1.4-1.3,1.3ZM213.1,738.5c-1,0-1.4-.4-1.5-1.5s0-1.3,1.3-1.3,1.5,0,1.5,1.5-.1,1.4-1.3,1.3ZM213.7,728.2c-1.5,0-2.2-.6-2.2-1.8s.1-1.3,1.4-1.1c1.2.2,1.4.4,1.4,1.6s-.2,1.4-.7,1.4h.1ZM213.7,717.8c-1.5,0-2.2-.6-2.2-1.8s.1-1.3,1.4-1.1c1.2.2,1.4.4,1.4,1.6s-.2,1.4-.7,1.4h.1ZM214.2,707.4c-1.9,0-2.7-.6-2.7-1.9s0-1.4,1.3-1.1c.7.2,1.4.4,1.7.5.6.3.4,2.5-.2,2.5h-.1ZM347.8,635.5c.8.2,1,.7,1,1.9s-.3,1.8-2.2,1.3c-.8-.2-1.1-.7-1.1-1.9s.3-1.8,2.3-1.3h0ZM345.5,646.3l3.3.4v5.1h-3.3v-5.5ZM345.5,659.3h1.6c1,.2,1.6,1.2,1.7,3.1.1,2.7,0,2.7-.9,2.5-.6,0-1.4-.3-1.7-.3s-.6-.8-.6-2.6v-2.6h-.1ZM345.5,674.8c0-2.8,0-2.9,1.1-2.6.6,0,1.3.3,1.7.3s.6.8.6,2.6v2.6h-3.3v-2.9h-.1ZM345.5,685.3h3.3v2.9c0,2.5,0,2.8-.8,2.6-.4,0-1.1-.3-1.7-.3s-.9-.3-.9-2.6v-2.6h.1ZM348.8,701.2v2.5h-1.5q-1.6-.3-1.7-3c-.1-2.8,0-3,2.2-2.4.9.3,1,.6,1,2.9ZM345.5,711.2h3.3v5.2h-3.3v-5.2ZM336.7,634.1c.5.2.8.8.8,1.9s-.2,1.6-.9,1.6c-1.8,0-2.4-.5-2.4-2.2s.7-2,2.5-1.3ZM334.2,645.2h3.3v2.9c0,2.5,0,2.8-.8,2.6-.4,0-1.1-.3-1.7-.3s-.9-.3-.9-2.6v-2.6h.1ZM334.2,671.1h1.8c0,0,1.7.3,1.7.3v2.7c.2,1.5,0,2.7-.1,2.7s-1.1,0-1.9-.3c-1.4-.3-1.5-.4-1.5-2.9v-2.5ZM325.6,632.7c.8,0,1,.5,1,1.8s0,1.7-1.6,1.7c-2.6,0-3.1-.4-3.1-2.4s0-1.9,3.7-1.1ZM321.4,643.7h2.5c0,0,2.5.3,2.5.3v2.7q.3,3-3.2,2.5l-1.8-.3v-5.1h0ZM322.5,656.7c.6,0,1.7.3,2.6.3h1.5v5.8l-1.5-.3c-.8,0-2-.3-2.6-.3-1.1,0-1.1,0-1.1-2.9s0-2.9,1.1-2.6ZM321.4,672.5c0-2.1,1.1-2.9,3.4-2.5l1.7.3v5.3h-2.6c0,0-2.6-.3-2.6-.3v-2.8h.1ZM321,682.9h2.1c1.1,0,2.4,0,2.8.3.6.2.8.9.8,2.8s0,2.5-1.4,2.5-2,0-2.8-.3c-1.4-.3-1.5-.4-1.5-2.8v-2.5ZM322.1,695.8c.6,0,1.8.3,2.8.3h1.7v5.8l-1.7-.3c-1,0-2.3-.3-2.8-.3-1,0-1.1-.2-1.1-2.9s0-2.9,1.1-2.6ZM320.7,711c.3-1.5,1.5-2.1,3.8-1.8l2.2.3v5.3h-2.9c-3.3-.3-3.5-.7-3.1-3.8ZM320.5,722.1h2c1.1,0,2.5,0,3.1.3.9.3,1,.6,1,2.8v2.5h-2c-3.8,0-4.2-.3-4.2-3.1v-2.5h.1ZM321.3,735c.4,0,1.8.3,3.1.3h2.3v5.8l-1.7-.3c-1,0-2.4-.3-3.1-.3q-1.3,0-1.3-2.9c0-2.9,0-2.8.8-2.6h0ZM320,751.6c0-3.4.3-3.7,2.7-3.4,1.2,0,2.5.3,3,.3.8,0,.9.4.9,2.6v2.6h-6.6v-2.1h0ZM326.6,804.2h-7.1v-3.8h7.1v3.8ZM326.6,792.8h-7.1v-2.8q0-2.8,1.4-2.8c1.4,0,2.3,0,3.5.3l2.2.3v5ZM326.6,780.2l-1.5-.3c-.8,0-2.3-.3-3.3-.3h-1.8v-2.9c0-2.5,0-2.8.8-2.6.4,0,1.9.3,3.3.3h2.5v5.8ZM324.4,766.9c-4.1,0-4.4-.2-4.4-3.2v-2.5h3.2c0,0,3.2.3,3.2.3v2.7c.1,0,.3,2.7.3,2.7h-2.3ZM336.9,804.9c-.6,0-1.5-.3-1.9-.3-.7,0-.8-.4-.8-1.9s0-1.9,1.1-1.7c.6,0,1.4.3,1.9.3s.8.4.8,1.9,0,1.9-1,1.7h-.1ZM338,791c0,2.5,0,2.8-.8,2.6-.4,0-1.3-.3-1.9-.3-1,0-1.1,0-1.1-2.6v-2.6h3.8v2.9h0ZM338,780.6h-3.8v-2.8c0-1.6.2-2.8.4-2.8s1.1,0,1.9.3c1.4.3,1.5.4,1.5,2.8v2.5ZM338,765.1c0,2.5,0,2.8-.8,2.6-.4,0-1.3-.3-1.9-.3-1,0-1.1,0-1.1-2.6v-2.6h3.8v2.9h0ZM338,754.6h-3.8v-2.8c0-3,.2-3.2,2.7-2.5.9.3,1,.6,1,2.8v2.5h0ZM338,739.1c0,2.5,0,2.8-.8,2.6-.4,0-1.3-.3-1.9-.3-1,0-1.1,0-1.1-2.6v-2.6h3.8v2.9h0ZM338,728.7h-3.8v-2.8c0-3,.2-3.2,2.7-2.5.9.3,1,.6,1,2.8v2.5h0ZM338,715.5h-3.8v-5.5l3.8.4v5.1ZM336.8,702.7c-2.3,0-2.6-.4-2.6-3.1s0-2.5,1.1-2.5,1.5,0,1.9.3c.6.2.8.9.8,2.8s0,2.5-1.1,2.5h0ZM338,689.5h-3.8v-2.9c0-2.5,0-2.8.8-2.6.4,0,1.3.3,1.9.3,1,0,1.1,0,1.1,2.6v2.6h0ZM334.2,663.6v-5.8l1.6.3c.8.2,1.6.4,1.7.5,0,0,.3,1.2.4,2.5l.2,2.4h-3.9ZM349.3,805.6h-3.8v-3.8h3.8v3.8ZM349.3,794.3h-3.8v-2.8c0-3,.2-3.2,2.7-2.5.9.3,1,.6,1,2.8v2.5h0ZM349.3,781.3l-3.8-.4v-5.1h3.8v5.5ZM349.3,768.3h-3.8v-2.9c0-2.5,0-2.8.8-2.6.4,0,1.3.3,1.9.3,1,0,1.1,0,1.1,2.6v2.6h0ZM349.3,752.7c0,1.6-.2,2.8-.4,2.8s-1.1,0-1.9-.3c-1.4-.3-1.5-.4-1.5-2.8v-2.5h3.8v2.8ZM349.3,742.4h-3.8v-5.2h3.8v5.2ZM348.1,729.6c-2.3,0-2.6-.4-2.6-3.1s0-2.5,1.1-2.5,1.5,0,1.9.3c.6.2.8.9.8,2.8s0,2.5-1.1,2.5h0ZM383.6,719.5c-.6,0-1.9-.3-2.8-.3h-1.8v-2.6q0-2.9,3.9-2.3l1.7.3v2.5c0,2.5,0,2.6-1,2.3h0ZM384.7,727.4v5.1l-1.5-.3c-.8,0-2.1-.3-2.8-.3-1.3,0-1.4,0-1.4-2.6s0-2.9,3.9-2.3l1.7.3h0ZM382.7,701.6c1.4.3,1.5.4,1.5,2.9s-.1,2.5-.8,2.3c-.4,0-1.6-.3-2.6-.3h-1.8v-2.6c0-2.9.2-3,3.7-2.3h0ZM379,693.8v-5.2h1.6c.8,0,2,0,2.6.3.9.3,1,.6,1,2.9s-.1,2.5-.8,2.3c-.4,0-1.6-.3-2.6-.3h-1.8ZM380.6,639.8c1.1,0,2.3.3,2.6.5.3,0,.6.8.6,1.5,0,1.2-.1,1.3-1.5,1.2-3.4-.4-3.7-.6-3.7-2s0-1.4,2-1.1h0ZM368.8,638.3c.6,0,1.6.3,2.2.3s.9,0,.6.3c-.3,0-.6.8-.6,1.4,0,1-.2,1.1-1.7,1.1s-1.7,0-1.7-1.7,0-1.7,1.1-1.4h.1ZM367.7,648.9h1.6q1.5.3,1.7,2.9v2.6c.1,0-1.6-.2-1.6-.2l-1.7-.2v-5.1ZM370.2,662c.6.2.8.9.8,2.9s-.1,2.5-.8,2.3c-.4,0-1.1-.3-1.7-.3s-.9-.3-.9-2.6.5-3.1,2.5-2.3h.1ZM368.8,674.6c.6,0,1.3.3,1.7.3s.6.8.6,2.6c0,2.7-.1,2.9-2.2,2.3-.9-.3-1.1-.6-1.1-2.9s0-2.6,1.1-2.3h-.1ZM358.6,637c.8.2,1,.7,1,1.8s0,1.5-1.7,1.3c-1.5-.2-1.7-.3-1.7-1.8s.3-1.8,2.3-1.3h.1ZM356.8,647.5c.2,0,1.1,0,1.9.3,1.4.3,1.5.4,1.5,2.8s-.2,2.9-2.7,2.3c-.9-.3-1.1-.6-1.1-2.8s.2-2.5.4-2.5h0ZM356.4,663.1c0-2.5,0-2.8.8-2.6.4,0,1.3.3,1.9.3,1,0,1.1,0,1.1,2.6v2.6h-3.8v-2.9h0ZM356.4,673.5h3.8v5.5l-3.8-.4v-5.1ZM359.1,686.5c.9.3,1,.6,1,2.8s-.2,2.5-.4,2.5-1.1,0-1.9-.3c-1.4-.3-1.5-.4-1.5-2.8s.2-2.9,2.7-2.3h0ZM356.5,701.6c-.1-2.4,0-2.7.6-2.5.4,0,1.3.3,1.9.3,1,0,1.1,0,1.1,2.6v2.6h-1.7c0,0-1.8-.3-1.8-.3v-2.8h-.1ZM357.6,737.8c.4,0,1.1.3,1.7.3s.9.3.9,2.6v2.6h-3.3v-2.9c0-2.5,0-2.8.8-2.6h-.1ZM356.8,727.5v-2.6h1.6c1,.2,1.6,1.2,1.7,3.1.1,2.7,0,2.7-.9,2.5-.6,0-1.4-.3-1.7-.3s-.6-.8-.6-2.6h-.1ZM356.8,717.4v-5.2h3.3v5.2h-3.3ZM356.8,763.5h1.8c0,0,1.7.3,1.7.3v2.8c.3,2.7.2,2.7-.8,2.5-.6,0-1.5-.3-1.9-.3-.7,0-.8-.4-.8-2.6v-2.6h0ZM360.6,806.1h-3.8v-3.8h3.8v3.8ZM360.6,794.7h-3.8v-5.2h3.8v5.2ZM360.6,782h-3.8v-2.9c0-2.8,0-2.9,1.1-2.6.6,0,1.4.3,1.9.3s.8.4.8,2.6v2.6h0ZM360.6,756h-3.8v-5.2h3.8v5.2ZM369.6,687.5l1.9.2v5.1h-1.7c0,0-1.8-.3-1.8-.3v-2.6c-.1,0-.3-2.6-.3-2.6l1.9.2h0ZM367.7,705.6v-5.2h3.8v5.2h-3.8ZM371.5,713.1v5.2h-3.8v-5.2h3.8ZM367.7,725.8h1.8c0,0,1.7.3,1.7.3v2.8c.3,2.4.2,2.7-.5,2.5-.4,0-1.3-.3-1.9-.3-1,0-1.1,0-1.1-2.6v-2.6h0ZM370.4,738.9c.9.3,1,.6,1,2.9v2.6l-1.5-.3c-.8,0-1.5-.3-1.6-.4,0,0-.2-1.2-.4-2.6-.3-2.6,0-2.8,2.4-2.2h.1ZM371.5,751.9v5.1h-3.3v-5.5l3.3.4ZM370,806.5h-1.9v-1.9c0-2,.4-2.2,2.7-1.6.8.2,1,.7,1,1.9s0,1.6-1.9,1.6h0ZM371.9,795.5l-3.8-.4v-5.1h3.8v5.5ZM371.9,782.5h-3.8v-5.2h3.8v5.2ZM371.9,769.7h-3.8v-5.2h3.8v5.2ZM380.4,650.4c1,0,2.2,0,2.6.3.6.2.8.9.8,2.7v2.5l-2.5-.3-2.5-.2v-2.5c-.1,0-.3-2.5-.3-2.5h1.9ZM378.5,663.1h1.8c.9,0,2.2,0,2.8.3.9.3,1,.6,1,2.8v2.5l-2.2-.2c-2.3-.2-3.4-1.2-3.4-3v-2.4h0ZM378.8,675.8h1.7c.9,0,2.1,0,2.7.3.9.3,1,.6,1,2.9s-.1,2.5-.8,2.3c-.4,0-1.6-.3-2.5-.3h-1.8l-.2-2.6v-2.6h-.1ZM382.5,739.8l2.2.3v5.2l-1.7-.3c-1,0-2.3-.3-2.8-.3-1,0-1.1-.2-1.1-2.6s0-2.8,3.5-2.3h-.1ZM382.5,752.6l2.2.3v5.2l-2.5-.3c-1.4-.2-2.5-.4-2.6-.4s-.2-1.2-.4-2.6c-.3-2.7-.5-2.7,3.3-2.2ZM385.1,805.6c0,1.3-.6,1.9-1.7,1.9-3.2,0-3.9-.4-3.9-2.2v-1.6h5.7v1.9h-.1ZM385.1,796.2h-2.7c0,0-2.7-.3-2.7-.3v-2.6c-.1,0-.3-2.6-.3-2.6h2.9c0,0,2.8.3,2.8.3v5.1h0ZM385.1,783.4h-1.7c-3.6,0-3.9-.3-3.9-3.2s0-2.6,1.1-2.3c.6,0,1.8.3,2.8.3h1.7v5.2ZM385.1,768.1c0,2.5,0,2.6-1.4,2.6s-2,0-2.8-.3c-1.4-.3-1.5-.4-1.5-2.9s0-2.6,1.1-2.3c.6,0,1.8.3,2.8.3h1.7v2.6h0ZM568.7,573.5l1.8-.4,1.7-.4v4c.2,2.2.2,4.1,0,4.1,0,0-.9.3-1.9.5l-1.8.3v-8h.1ZM571,798c-1.1,0-1.4-.2-1.4-.9s.3-.9,1.4-.9,1.4.2,1.4.9-.3.9-1.4.9ZM572.4,788.6h-2.8v-8.5h2.8v8.5ZM572.4,772.6h-2.8v-4c0-3.4,0-4,.8-4.2,1.9-.5,2-.5,2,3.9v4.2h0ZM572.4,756.4l-1.3.2c-.8,0-1.4.2-1.4.2,0,0-.2-1.9-.3-4.2l-.2-4.1,1.4-.2c.8,0,1.5-.2,1.6-.2v8.3h.2ZM572.4,736.4c0,4.2-.2,4.5-2.4,4.5s-.9-.4-.9-4.2v-4.2h3.3v4h0ZM572.4,724.9h-3.3v-3.9c0-2.2,0-4.1.3-4.2,0-.2.9-.3,1.7-.3h1.3v8.5h0ZM572.4,708.9h-3.3v-4c0-4.2,0-4.3,2.5-4.5.7,0,.8.5.8,4.2v4.2h0ZM571.6,692.8c-.5,0-1.2,0-1.7.3-.7.2-.8-.3-.8-4v-4.3l1.3-.2c.7,0,1.4-.2,1.7-.3.2,0,.3,1.8.3,4.2,0,3.9,0,4.2-.9,4.2h.1ZM569.1,677.3v-8.5h1.6c0,0,1.5-.3,1.5-.3v4c.2,2.2.2,4,0,4.1,0,0-.8.3-1.7.5l-1.6.3h.1ZM572.4,656.7c0,3.7,0,4-1,4.2-2.2.6-2.3.5-2.3-3.6s0-4.1.3-4.2c0-.2.9-.3,1.7-.3h1.3v4h0ZM570,645.2c-.8,0-.9-.4-.9-4s0-4.3,2.5-4.5c.7,0,.8.4.8,3.9s-.2,4.5-2.4,4.5h0ZM569.1,629.5v-4.2c0-3.9,0-4.2,1.1-4.3,2.3-.5,2.3-.6,2.1,3.8v4.1c0,0-1.7.3-1.7.3l-1.6.3h.1ZM572.4,613l-1.5.2c-.8,0-1.6.2-1.7,0,0,0,0-1.8-.2-4.1l-.2-4,1.4-.3c.8-.2,1.6-.3,1.8-.4.2,0,.3,1.8.3,4.2v4.2h.1ZM572,597c-.2,0-1.1,0-1.9.3l-1.5.3v-8.1l1.6-.5c.8-.2,1.7-.5,1.9-.5s.3,1.8.3,4.2-.2,4.2-.4,4.2h0ZM570.6,565.3c-1.7.4-1.9.4-1.9-.4s1.4-1.7,3-1.8c.5,0,.8.3.8.8s-.5,1-1.9,1.4h0ZM620.1,749.9c0,2.1,0,2.3-1.5,2.5-3.8.8-3.7.8-3.7-4.2v-4.5l2-.2c1.1,0,2.1-.2,2.3-.2s.4.9.6,2.1c0,1.2.3,3.2.3,4.4h0ZM618.6,769c-3.8.8-3.7.8-3.7-4.2v-4.5l2.3-.2c1.2,0,2.4-.2,2.6-.2s.3,1.9.3,4.3v4.4l-1.5.3h0ZM620.1,780.8c0,4.9,0,5-3.6,5h-1.6v-8.9l2.3-.2c1.2,0,2.4-.2,2.6-.2s.3,1.9.3,4.3h0ZM614.9,736.2v-8.9l2-.2c1.1,0,2.1-.2,2.4-.2s.3,1.9.3,4.3c0,4.9,0,5-3.4,5h-1.3ZM619.6,714.7v4.4l-1.5.3c-3.3.7-3.3.8-3.3-4.2v-4.5l1.8-.2c.9,0,2-.2,2.4-.2s.6,1.1.6,4.3h0ZM614.9,698.8v-4.5l1.8-.2c.9,0,1.9-.2,2.1-.2s.3,1.9.3,4.3c0,4.8,0,5-3.2,5s-1.1,0-1.1-4.4h.1ZM619.2,686.1l-1.5.3c-2.8.6-2.8.7-2.8-4.2v-4.5l1.6-.2c.8,0,1.8-.2,2.1-.2s.6,1.1.6,4.3v4.4h0ZM618.9,669.6s-.9.2-2,.4l-2,.3v-9.1l1.6-.2c.8,0,1.7-.2,1.8-.2.2,0,.4,1.9.5,4.2,0,2.4,0,4.4,0,4.5h0ZM614.9,653.8v-9l1.3-.2c.7,0,1.6-.2,1.9-.3.4,0,.6,1.1.6,4.4s-.2,4.5-.4,4.5-1.1,0-1.9.3l-1.5.3h0ZM617.6,552c.3,1.3-.3,2.1-1.8,2.1s-.8-.4-.8-1.4c0-2.1,2.2-2.7,2.6-.7h0ZM614.9,566.6c0-4.5,0-4.8,2-4.9.8,0,.8.4.7,4.3q0,4.3-1.4,4.7l-1.3.3v-4.4h0ZM614.9,583.1c0-3.8,0-4.4.8-4.6,1.9-.5,2-.5,2,4.1v4.4l-1.4.2-1.4.2v-4.4h0ZM617.4,594.7c.7,0,.8.5.8,4.4s0,4.5-.9,4.5-1.2,0-1.7.3c-.7.2-.8-.3-.8-4.2s0-4.8,2.5-5h.1ZM617.6,611.2c.4,0,.6,1.1.6,4.4s0,4.5-.6,4.5-1.1,0-1.7.3c-1.1.3-1.1.2-1.1-4.2s0-4.7,2.7-5h0ZM606.3,580.9c.8-.9,1.1,0,1,4,0,2.9-.3,4.4-.7,4.5-.5,0-.6-.9-.6-4.1s0-4.3.3-4.5h0ZM605.9,568.8c0-2.3,0-4.3.3-4.5.8-.9,1.1,0,1,4,0,2.9-.3,4.4-.7,4.5-.5,0-.6-.9-.6-4.1h0ZM606.7,597c.6,0,.7.7.6,4.3,0,2.9-.3,4.4-.7,4.5-.5,0-.6-.9-.6-4.3s0-4.5.7-4.5ZM580.9,797.6c-.2,0-.5-.4-.5-.9s.2-.9.5-.9.5.4.5.9-.2.9-.5.9ZM580.9,787.9c-.3.2-.5-1.3-.5-4s.2-4.3.5-4.3.5,1.7.5,4-.2,4.2-.5,4.3ZM580.9,771.9c-.3.2-.5-1.3-.5-4s.2-4.3.5-4.3.5,1.7.5,4-.2,4.2-.5,4.3ZM580.9,755.8c-.3.2-.5-1.3-.5-4s.2-4.3.5-4.3.5,1.7.5,4-.2,4.2-.5,4.3ZM580.9,739.8c-.3.2-.5-1.3-.5-4s.2-4.3.5-4.3.5,1.7.5,4-.2,4.2-.5,4.3ZM580.9,723.5c-.3,0-.5-1.7-.5-4s.2-4,.5-4,.5,1.7.5,4-.2,4-.5,4ZM580.9,707.4c-.3,0-.5-1.7-.5-4s.2-4,.5-4,.5,1.7.5,4-.2,4-.5,4ZM580.9,691.4c-.3,0-.5-1.7-.5-4.2s.2-4.2.5-4.2.5,1.7.5,4.2-.2,4.2-.5,4.2ZM580.9,675.4c-.3,0-.5-1.7-.5-4.2s.2-4.2.5-4.2.5,1.7.5,4.2-.2,4.2-.5,4.2ZM580.9,659.3c-.3,0-.5-1.7-.5-4.2s.2-4.2.5-4.2.5,1.7.5,4.2-.2,4.2-.5,4.2ZM580.9,643.3c-.3,0-.5-1.7-.5-4.2s.2-4.2.5-4.2.5,1.7.5,4.2-.2,4.2-.5,4.2ZM580.9,627.2c-.3,0-.5-1.7-.5-4.2s.2-4.2.5-4.2.5,1.7.5,4.2-.2,4.2-.5,4.2ZM580.9,611.2c-.3,0-.5-1.7-.5-4.2s.2-4.2.5-4.2.5,1.7.5,4.2-.2,4.2-.5,4.2ZM580.9,594.9c-.3.2-.5-1.3-.5-4s.2-4.3.5-4.3.5,1.7.5,4-.2,4.2-.5,4.3ZM580.9,578.9c-.3.2-.5-1.3-.5-4s.2-4.3.5-4.3.5,1.7.5,4-.2,4.2-.5,4.3ZM580.9,562.6c-.2,0-.5-.4-.5-.9s.2-.9.5-.9.5.4.5.9-.2.9-.5.9ZM589.4,797.1c-.5,0-.7-1.6,0-2,.5-.5.6-.4.6.8s-.2,1.2-.5,1.2ZM589.4,787.2c-.3,0-.5-1.7-.5-4.2s.2-4.2.5-4.2.5,1.7.5,4.2-.2,4.2-.5,4.2ZM589.4,771.1c-.3,0-.5-1.7-.5-4.2s.2-4.2.5-4.2.5,1.7.5,4.2-.2,4.2-.5,4.2ZM589.4,755.1c-.3,0-.5-1.7-.5-4.2s.2-4.2.5-4.2.5,1.7.5,4.2-.2,4.2-.5,4.2ZM589.4,739.1c-.5,0-.7-8.1,0-8.6.6-.6.6-.3.6,4.2s-.2,4.5-.5,4.5h0ZM589.4,722.5c-.3,0-.5-1.7-.5-4.2s.2-4.2.5-4.2.5,1.7.5,4.2-.2,4.2-.5,4.2ZM589.4,706.5c-.3,0-.5-1.7-.5-4.2s.2-4.2.5-4.2.5,1.7.5,4.2-.2,4.2-.5,4.2ZM589.4,690.5c-.3,0-.5-1.7-.5-4.2s.2-4.2.5-4.2.5,1.7.5,4.2-.2,4.2-.5,4.2ZM589.4,674.2c-.3.2-.5-1.3-.5-4.2s.2-4.5.5-4.5.5,1.7.5,4.2-.2,4.4-.5,4.5ZM589.4,657.9c-.3,0-.5-1.7-.5-4.2s.2-4.2.5-4.2.5,1.7.5,4.2-.2,4.2-.5,4.2ZM589.4,641.9c-.3,0-.5-1.7-.5-4.2s.2-4.2.5-4.2.5,1.7.5,4.2-.2,4.2-.5,4.2ZM589.4,625.6c-.3.2-.5-1.3-.5-4.2s.2-4.5.5-4.5.5,1.7.5,4.2-.2,4.4-.5,4.5ZM589.4,609.3c-.3,0-.5-1.7-.5-4.2s.2-4.2.5-4.2.5,1.7.5,4.2-.2,4.2-.5,4.2ZM589.4,593.3c-.3,0-.5-1.7-.5-4.2s.2-4.2.5-4.2.5,1.7.5,4.2-.2,4.2-.5,4.2ZM589.4,576.8c-.3,0-.5-1.7-.5-4.2s.2-4.2.5-4.2.5,1.7.5,4.2-.2,4.2-.5,4.2ZM589.4,560.7c-.2,0-.5-.5-.5-1.2s.2-1.2.5-1.2.5.5.5,1.2-.2,1.2-.5,1.2ZM597.9,796.6c-.2,0-.5-.5-.5-1.2s.2-1.2.5-1.2.5.5.5,1.2-.2,1.2-.5,1.2ZM597.9,786.7c-.3,0-.5-1.7-.5-4.2s.2-4.2.5-4.2.5,1.7.5,4.2-.2,4.2-.5,4.2ZM597.9,770.7c-.5,0-.7-8.1,0-8.6.6-.6.6-.3.6,4.2s-.2,4.5-.5,4.5h0ZM597.9,754.2c-.3,0-.5-1.7-.5-4.2s.2-4.2.5-4.2.5,1.7.5,4.2-.2,4.2-.5,4.2ZM597.9,738.1c-.5,0-.7-8.1,0-8.6.6-.6.6-.3.6,4.2s-.2,4.5-.5,4.5h0ZM597.9,721.6c-.3,0-.5-1.7-.5-4.2s.2-4.2.5-4.2.5,1.7.5,4.2-.2,4.2-.5,4.2ZM597.9,705.6c-.5,0-.7-8.1,0-8.6.6-.6.6-.3.6,4.2s-.2,4.5-.5,4.5h0ZM597.9,689c-.3,0-.5-1.7-.5-4.2s.2-4.2.5-4.2.5,1.7.5,4.2-.2,4.2-.5,4.2ZM597.9,673c-.3,0-.5-1.8-.5-4.5s.2-4.5.5-4.5.5,1.8.5,4.5-.2,4.5-.5,4.5ZM597.9,656.5c-.3,0-.5-1.7-.5-4.2s.2-4.2.5-4.2.5,1.7.5,4.2-.2,4.2-.5,4.2ZM597.9,640.2c-.3.2-.5-1.3-.5-4.2s.2-4.5.5-4.5.5,1.7.5,4.2-.2,4.4-.5,4.5ZM597.9,623.9c-.3,0-.5-1.7-.5-4.2s.2-4.2.5-4.2.5,1.7.5,4.2-.2,4.2-.5,4.2ZM597.9,607.4c-.3,0-.5-1.7-.5-4.2s.2-4.2.5-4.2.5,1.7.5,4.2-.2,4.2-.5,4.2ZM597.9,591.4c-.5,0-.7-8.1,0-8.6.6-.6.6-.3.6,4.2s-.2,4.5-.5,4.5h0ZM597.9,574.9c-.3,0-.5-1.7-.5-4.2s.2-4.2.5-4.2.5,1.7.5,4.2-.2,4.2-.5,4.2ZM597.9,558.6c-.3.2-.5-.3-.5-1.1s.2-1.5.5-1.5.5.5.5,1.1-.2,1.3-.5,1.5ZM606.7,795.7c-.4,0-.7-.4-.7-.9s.3-.9.7-.9.7.4.7.9-.3.9-.7.9ZM606.7,786.2c-.6,0-.7-.8-.7-4.2s0-4.2.7-4.2.7.8.7,4.2,0,4.2-.7,4.2ZM606.7,769.7c-.6,0-.7-.8-.7-4.2s0-4.2.7-4.2.7.8.7,4.2,0,4.2-.7,4.2ZM606.7,753.7c-.6,0-.7-.8-.7-4.5s0-4.5.7-4.5.7.8.7,4.5,0,4.5-.7,4.5ZM606.7,737.2c-.6,0-.7-.8-.7-4.2s0-4.3.3-4.5c.8-.9,1.1,0,1.1,4.2s0,4.5-.7,4.5h0ZM606.7,720.7c-.6,0-.7-.8-.7-4.2s0-4.2.7-4.2.7.8.7,4.2,0,4.2-.7,4.2ZM606.7,704.3c-.6.2-.7-.4-.7-4.2s0-4.5.7-4.5.7.8.7,4.2,0,4.2-.7,4.5ZM605.9,683.7c0-3.8,0-4.5.7-4.5s.7.7.6,4.3c0,2.9-.3,4.4-.7,4.5-.5,0-.6-.9-.6-4.3ZM606.7,671.6c-.6,0-.7-.8-.7-4.2s0-4.3.3-4.5c.8-.9,1.1,0,1.1,4.2s0,4.5-.7,4.5h0ZM606.7,655.1c-.6,0-.7-.8-.7-4.2s0-4.3,1.3-4.7v4.4c0,3.7,0,4.5-.7,4.5h.1ZM606.7,638.6c-.6,0-.7-.8-.7-4.2s0-4.2.7-4.2.7.8.7,4.2,0,4.2-.7,4.2ZM606.7,622.1c-.6,0-.7-.8-.7-4.2s0-4.2.7-4.2.7.8.7,4.2,0,4.2-.7,4.2ZM606.7,556.5c-.5,0-.7-.5-.7-1.4s.2-1.4.7-1.4.7.5.7,1.4-.2,1.4-.7,1.4ZM617.6,627.8c.3,0,.7.8.8,1.7,0,1,.3,3,.3,4.5,0,2.3,0,2.7-.8,2.7s-1.3,0-1.9.3c-1.1.3-1.1.2-1.1-4.2s0-4.7,2.6-5h.1ZM617.7,795.2c-2.5,0-2.8,0-2.8-.9s.4-1,2.3-1.1c1.2,0,2.5-.2,2.8-.2s.6.4.6,1.1c0,1.1,0,1.2-2.8,1.2h0ZM719.5,630.1c.9,0,1.2.2,1,.8,0,.5-.6.9-1.2,1-.8,0-1,0-1-.8s.3-1,1.2-1ZM707,633.6c0-.8,1-1.2,3.3-1.6.2,0,.3.4.3.9s-.3.9-.8.9-1.4,0-2,.3c-.9.2-1,0-.9-.6h.1ZM706.7,645.5c.4-3.8.2-3.6,3.4-4,.4,0,.6,1,.6,3.7v3.7l-1.9.3c-1,.2-2,.2-2.2,0v-3.8h.1ZM706.5,660.9c0-2.5.6-3.8,1.6-4,2.6-.6,2.6-.7,2.6,3.3v3.7l-1.5.3c-2.9.6-2.8.6-2.7-3.3h0ZM706.5,675.9v-3.6c0,0,1.8-.3,1.8-.3.9-.2,1.8-.3,2-.4.2,0,.3,1.6.3,3.7,0,4-.2,4.2-3.2,4.3-1,0-1.1,0-.9-3.7h0ZM709.3,724.9c-.8,0-1.7,0-2.1.3-.7.2-.8-.2-.8-3.5s0-4.2,2.7-4.3h1.5v7.5h-1.4,0ZM710.7,732.5v3.8c0,3.6,0,3.8-1,3.8s-1.6,0-2.1.3c-1,.3-1.1.2-1.1-3.5s0-4.2,3-4.3h1.3-.1ZM708.6,709.9h-2.1c0,0,0-3.5,0-3.5,0-3.9,0-4.1,2.7-4.1h1.5v7.4l-2.1.2h0ZM706.5,691v-3.6c0,0,3.9-.5,3.9-.5v3.5c.2,2.5,0,3.6-.3,3.9-.3.2-1.3.4-2.2.4h-1.6v-3.7h.2ZM706,748.1l1.6-.2c3.4-.4,3.2-.7,3.2,3.4v3.7l-1.5.3c-2.2.5-3.3-.7-3.3-3.4v-3.8ZM706,763.2l2-.2c1.1,0,2.1-.2,2.3-.2s.5.4.6,1c.2.6.2,2.4,0,3.9v2.8c0,0-2.6,0-2.6,0h-2.5c0,0,0-7.4,0-7.4h.1ZM708.6,794.3c-1.4,0-2.6-.2-2.6-.5s1.2-.5,2.6-.5,2.6.2,2.6.5-1.2.5-2.6.5ZM711.2,785.8h-5.2v-7.5h5.2v7.5ZM719.7,793.8c-.5,0-.9-.2-.9-.5s.4-.5.9-.5.9.2.9.5-.4.5-.9.5ZM719.7,785.3c-.8,0-.9-.3-.9-4s0-4,.9-4,.9.3.9,4,0,4-.9,4ZM719.7,769.7c-.8,0-.9-.3-.9-3.8s0-3.8.9-3.8.9.3.9,3.8,0,3.8-.9,3.8ZM718.9,754.6s-.2-1.8-.2-4c0-3.7,0-4,.9-4s.9.3.9,3.7-.3,4.3-1.7,4.3h0ZM719.7,739.1c-.8,0-.9-.3-.9-3.8s0-3.8.9-3.8.9.3.9,3.8,0,3.8-.9,3.8ZM718.7,724c-.5,0-.6-7.2,0-7.7,0-.2.7-.3,1.2-.3.8,0,.8.4.8,3.7s-.3,4.3-1.9,4.3h0ZM719.4,708.4q-1.2,0-1.2-3.8,0-3.8,1.2-3.8,1.2,0,1.2,3.8,0,3.8-1.2,3.8ZM718.7,693.3c-.7,0-.5-7.4.2-7.7,1.6-.7,1.7-.3,1.7,3.4s-.3,4.3-1.9,4.3ZM719.4,677.7q-1.2,0-1.2-3.8,0-3.8,1.2-3.8,1.2,0,1.2,3.8,0,3.8-1.2,3.8ZM718.2,658.9c0-3.8,0-4,2-4.2.2,0,.3,1.7.2,3.8,0,3.6-.2,3.9-1.2,4.1-1,0-1.1,0-1.1-3.6h0ZM719.4,647.2c-.8.1-1.2-1-1.2-3.4,0-3.9,0-4.2,1.5-4.2s.8.4.8,3.7,0,3.7-1.2,3.9h.1ZM728.5,628c.7-.8,1.6-.3,1.6.8s-.2,1.2-.9,1.2-1.3-1.3-.6-2h0ZM729.1,753.7c-.8,0-.9-.3-.9-4s0-4,.9-4,.9.3.9,4,0,4-.9,4ZM730,765.2c0,3.7,0,4-.9,4s-.9-.3-.9-4,0-4,.9-4,.9.3.9,4ZM729.1,738.1c-.8,0-.9-.3-.9-3.7s0-4.3,1.3-4.3.6,1,.6,4,0,4-.9,4h0ZM729.1,722.5c-.8,0-.9-.3-.9-3.7s0-3.8.8-4c.4,0,.8-.2.9-.3v4c0,3.7,0,4-.9,4h.1ZM728.3,707.4s-.2-1.8-.2-4c0-3.7,0-4,.9-4s.9.3.9,3.7-.3,4.3-1.7,4.3h0ZM728.1,687.9c0-3.8,0-4.1.9-4.1s1,.2.8,3.9c0,3.3-.3,3.9-.9,4.1-.8,0-.8-.3-.8-3.9ZM729.1,676.3c-.8,0-.9-.3-.9-3.7s.2-4.1,1.6-4.2c.2,0,.3,1.7.3,4,0,3.7,0,4-.9,4h0ZM729.1,660.9c-.9.2-.9,0-.9-3.7s0-4,.9-4,.9.3.9,3.7,0,3.7-.9,4ZM728.3,645.6s-.2-1.8-.2-4c0-3.7,0-4,.9-4s.9.3.9,3.7-.3,4.3-1.7,4.3h0ZM729.1,776.8c.8,0,.9.3.9,3.8s0,3.8-.9,3.8-.9-.3-.9-3.8,0-3.8.9-3.8ZM729.3,793.3c-1.4,0-1.6-.8-.3-1.1,1.4-.4,1.5-.3,1.5.4s-.4.7-1.2.7h0ZM760.1,621c3-.7,3.2-.6,3.3.2v1.5c0,.3-1.2.8-2.3.9-1.1.2-2.5.4-3.1.6-.9.2-1.1,0-1.1-1.2s0-1.4,3.2-2.1h0ZM756.9,632.1l2.5-.5c4.4-.8,4.1-1.1,4.1,3.3s0,4.2-3.9,4.8l-2.7.3v-8h0ZM756.9,648l2.7-.5c1.5-.3,2.9-.6,3.2-.7.3,0,.5-.2.6-.2v8.4l-3,.5c-1.7.3-3.2.5-3.3.5s-.3-1.8-.3-4v-4h0ZM756.9,663.7l3-.5c1.6-.3,3.1-.5,3.3-.6.2,0,.3,1.8.3,4.2v4.2l-2.7.3c-1.5.2-2.9.4-3.3.6-.5.2-.6-.7-.6-4v-4.2ZM756.9,679.7l1.8-.3c.9-.2,2-.4,2.2-.5.3,0,.9-.2,1.6-.2q1,0,1,3.9c0,3.9,0,4.1-.3,4.2-.2,0-1.7.4-3.3.6l-3,.3v-8.1h0ZM756.9,695.2l1.8-.2c.9,0,2.5-.2,3.3-.2h1.5v7.9l-1.5.2c-.8,0-2.4.4-3.3.5l-1.8.3v-8.5ZM756.9,715.3v-4l2.3-.3c1.2,0,2.5-.4,2.9-.4s.8-.2,1.1-.2.3,1.8.3,4.2v4.2l-2.2.3c-4.7.6-4.4.8-4.4-3.7h0ZM748.8,623.5c.5,0,.6.4.5,1.3-.2,1.7-1.8,2.1-1.8.5s.3-1.7,1.3-1.7h0ZM738.7,625.7c1.1,0,1.6.6,1.1,1.8,0,.4-.7.7-1.2.7-1.4,0-1.3-2.2,0-2.5h0ZM739.8,670.7c0,3.6-.2,3.9-1.2,4.1-1,0-1.1,0-1.1-3.9s0-4.1,1.2-4.1,1.2,0,1.1,3.9ZM739.8,686.3c0,3.6-.2,3.9-1.2,4.1-1,0-1.1,0-1.1-3.9s0-4.1,1.2-4.1,1.2,0,1.1,3.9ZM739.8,655.2c0,3.6-.2,3.9-1.2,4.1-1,0-1.1,0-1.1-3.9s0-4.1,1.2-4.1,1.2,0,1.1,3.9ZM737.6,640.1c0-4,0-4.3,1.5-4.3s.9.3.8,3.9c0,3.6-.2,3.9-1.2,4.1-1,0-1.1,0-1.1-3.6h0ZM738.1,792.2c0-.5.4-.8,1-.8s.9.2.8.6c-.3.9-1.8,1-1.8.2ZM739,783.9c-.8,0-.9-.3-.9-4s0-4,.9-4,.9.3.9,4,0,4-.9,4ZM739,768.3c-.8,0-.9-.3-.9-4s0-4,.9-4,.9.3.9,4,0,4-.9,4ZM739,752.7c-.8,0-.9-.3-.9-4s0-4,.9-4,.9.3.9,4,0,4-.9,4ZM739,737.2c-.8,0-.9-.3-.9-4s0-4,.9-4,.9.3.9,4,0,4-.9,4ZM739,721.6c-.8,0-.9-.3-.9-4s0-4,.9-4,.9.3.9,4,0,4-.9,4ZM738.8,706q-1.2,0-1.2-4,0-4,1.2-4,1.2,0,1.2,4,0,4-1.2,4ZM747.5,791.7c0-.5.4-.8,1-.8s.9.2.8.6c-.3.9-1.8,1-1.8.2ZM748.4,783.4c-.8,0-.9-.3-.9-4s0-4,.9-4,.9.3.9,4,0,4-.9,4ZM747.5,763.6c0-4,0-4.3.9-4.3s1,.2.8,4.1c0,3.5-.3,4.2-.9,4.3-.8,0-.8-.3-.8-4.1ZM748.4,751.8c-.8,0-.9-.3-.9-4s0-4,.9-4,.9.3.9,4,0,4-.9,4ZM748.4,736.2c-.8,0-.9-.3-.9-4s0-4,.9-4,.9.3.9,4,0,4-.9,4ZM747.7,720.7c-.3,0-.2-7.8,0-8.2,0-.2.6-.3.9-.3s.6,1,.6,4-.3,4.5-1.7,4.5h.1ZM748.4,704.6c-.8,0-.9-.3-.9-4s0-4,.9-4,.9.3.9,4,0,4-.9,4ZM748.4,689c-.8,0-.9-.3-.9-4s0-4,.9-4,.9.3.9,4,0,4-.9,4ZM749.2,673s-.5,0-.9.3c-.7.2-.8-.2-.8-3.7s.2-4.4,1.6-4.5c.2,0,.3,1.7.3,4s0,4-.2,4h0ZM748.4,657.6c-.9.2-.9,0-.9-3.6s0-4.5,1.3-4.5.6,1,.6,4,0,4-.9,4.2h0ZM748.4,641.9c-.8,0-.9-.3-.9-4s0-4,.9-4,.9.3.9,4,0,4-.9,4ZM757.2,727l2.4-.3c1.3,0,2.7-.3,3.2-.3s.8.4.8,4.2v4.2h-1.5c-.8,0-2.4,0-3.3.3l-1.8.3.3-8.4h-.1ZM761.3,791.4c-1.3,0-2.7,0-3.3.3-.8.2-1.1,0-1.1-.4s.6-.8,1.8-.9c4-.4,4.8-.3,4.8.4s-.6.7-2.2.7h0ZM763.5,782.5h-1.5c-.8,0-2.4,0-3.3.3l-1.8.3v-8.6l2.7-.2c1.5,0,3-.2,3.3-.2s.6,1,.6,4.2v4.2ZM763.5,766.3l-1.5.3c-.8,0-2.3.3-3.3.3h-1.8v-4c0-4.5,0-4.4,4.2-4.5h2.5v7.8h-.1ZM763.4,746.5v4.2c0,0-3.3,0-3.3,0h-3.2c0,0,0-7.9,0-7.9l1.8-.2c.9,0,2.5-.2,3.3-.2h1.6v4c0,0-.2,0-.2,0ZM898.4,779.7v3.9c0,0-4,0-4,0h-3.9c0,0,0-7.4,0-7.4l3-.2c1.6,0,3.4-.2,4-.2,1,0,1.1,0,.9,3.8h0ZM890.4,768.8v-7.5l1.8-.2c.9,0,2.6-.2,3.8-.2h2v7.3l-2.2.3c-1.2,0-2.9.3-3.8.3h-1.6ZM893.2,738.1h-2.7v-7.5l2.7-.2c1.5,0,3.2-.2,3.8-.2q1,0,1,3.6c0,3.6,0,4.3-4.8,4.3h0ZM892.7,700.1c1.5,0,3-.4,3.4-.4,1.8-.4,1.9-.4,1.9,3.7v4h-1.8c-1,0-2.8,0-4,.3l-2.2.3v-7.6l2.7-.3h0ZM890,692.8v-7.5l1.6-.2c3.2-.5,3.9-.6,5.2-.7h1.3v7.5l-2.2.3c-1.3,0-3.1.4-4,.5l-1.8.2h0ZM898,676.6l-8,.8v-7.7l2-.2c1.1,0,2.9-.2,4-.2h2v7.3h0ZM892.2,639.3c1.2-.2,2.5-.4,2.7-.5.3,0,.9-.2,1.6-.2,1,0,1,0,1,3.7v3.7l-1.5.2c-.8,0-2.5.4-3.8.6l-2.3.3v-7.6l2.3-.3h0ZM890,628.2c0-2.1,0-3.8,0-3.9,0,0,1.7-.3,3.6-.6,1.9-.4,3.6-.7,3.7-.7v7.9l-2.7.3c-1.5,0-3.2.4-3.8.6-1,.2-1.1,0-1.1-3.6h.2ZM893.2,654.3c1.7-.3,3.4-.5,3.8-.6.4,0,.6,1,.6,3.7s0,3.9-.3,4-1.9.4-3.8.6l-3.4.3v-7.5l3.2-.4h0ZM891.3,598.6c.9,0,2.5-.5,3.4-.7,2.7-.6,2.8-.6,2.8.9s0,1.3-3.3,1.9c-4.6.7-4.8.7-4.8-.7s.3-1.2,1.8-1.5h0ZM877.8,648.8l-3.3.3v-3.6c0-3.3,0-3.6,1.1-3.8,1.8-.4,3.3-.6,5.2-.7h1.7v3.4c0,4,.2,3.8-4.7,4.3h0ZM882.4,656v3.5c0,1.9,0,3.6-.3,3.7-.2,0-2,.4-4,.6l-3.7.3v-3.6c0-3.3,0-3.6,1.1-3.8,1.8-.4,3.3-.6,5.2-.7h1.7ZM877.4,633.8l-3,.4v-3.7c0-2,0-3.7,0-3.7,0,0,1.7-.3,3.6-.6q4.2-.7,4.2,3.8c0,3.3.4,3.1-5,3.8h.1ZM874.4,619v-7.3l1.6-.3c.8,0,2.5-.4,3.6-.6l2.1-.4v3.5c.2,1.9.2,3.6,0,3.8s-1.8.5-3.8.8l-3.5.5h0ZM874.5,602.8c0-1.1.4-1.3,3-1.7,4.3-.8,4.5-.8,4.5.5s0,1.2,0,1.2c0,0-1.8.3-3.8.6l-3.7.6v-1.2h0ZM861.6,658.6c1.2-.2,2.5-.4,2.7-.5.3,0,.9-.2,1.6-.2q1,0,1,3.7c0,3.7,0,3.8-.9,3.8s-2.2,0-3.8.3l-2.9.3v-7.2l2.3-.3h0ZM859.3,647.6v-3.8l3.2-.4c1.7-.3,3.4-.5,3.8-.6.4,0,.6,1,.6,3.7v3.7l-2.9.3c-1.7,0-3.3.4-3.8.5-.8.2-.8,0-.8-3.5h0ZM859.4,677.4v-3.7c0,0,2.3-.3,2.3-.3,1.2,0,2.8-.3,3.7-.3h1.5v3.4c0,4,.3,3.7-4.9,4.2l-2.7.3v-3.7h.1ZM861.6,603.7c4.4-.8,5.3-.7,5.3.3s-.5,1.2-3.5,1.7c-1,.2-2.5.4-3.2.6-1.2.2-1.3,0-1.3-.9s.3-1.2,2.7-1.7h0ZM858.8,614.1l2.3-.3c1.2-.2,2.5-.4,2.7-.5.3,0,1-.2,1.8-.2h1.3v3.4c0,4,.3,3.7-5,4.3l-3,.3v-7.2.2ZM844.8,606.7c.9-.2,5.1-1,6.1-1.1.2,0,.3.5.3,1.1,0,1-.3,1.1-2.4,1.4-1.4.2-3.1.5-3.8.6-1.2.2-1.4,0-1.4-.8s.4-1,1.1-1.2h.1ZM843.7,616.5l2.7-.5c5.1-.8,4.8-1,4.8,2.9s.2,3.7-4.9,4.3l-2.7.3v-7.1h.1ZM851.3,633.8v3.7l-3.2.3c-1.7.2-3.4.4-3.8.6-.5.2-.6-.5-.5-3.4v-3.7c0,0,3.4-.5,3.4-.5,1.8-.3,3.4-.6,3.7-.6s.3,1.6.3,3.7h0ZM843.7,646.2l2.3-.3c1.2-.2,2.5-.4,2.7-.5.3,0,.9-.2,1.6-.2s1,.2,1,2,0,2.7.3,3.5c.3,1.6.7,1.4-5.6,2.3l-2.3.3v-7.1ZM843.7,660.9l3.4-.5c1.8-.3,3.7-.5,4-.6.4,0,.6.9.6,3.4s0,3.6-.3,3.7c-.2,0-2,.4-4,.6l-3.7.3v-7h0ZM843.7,679.4c0-3.3,0-3.6,1.1-3.8,1.4-.3,3.5-.6,5.4-.7h1.5v6.9l-2.2.3c-1.3.2-3.1.4-4,.6l-1.8.3v-3.6ZM836.6,724.3v3.7c0,0-2.6,0-2.6,0h-2.5c0,0,0-6.9,0-6.9l2-.2c1.1,0,2.3-.2,2.6-.2.5,0,.6.8.5,3.5h0ZM834.7,662.2h1.5v7h-1.6c-.9,0-1.9,0-2.4.3-.7.2-.8-.2-.8-3.3s0-3.9,3.2-4.1h0ZM831.5,654.8v-3.4c0-3.7,0-3.6,3.3-4,1.1,0,1.2,0,1.3,2.9v3.6c0,.3-1.2.7-2.4.8h-2.2,0ZM834.9,676.8h1.3v3.5c0,3.2,0,3.5-.9,3.5s-1.6,0-2.4.3l-1.5.3v-3.5q0-3.9,3.4-4.1h.1ZM832.8,691.7c3.5-.5,3.4-.7,3.4,3.2s-.2,3.5-.6,3.5-1.4,0-2.4.3l-1.8.3v-3.6c0-3.5,0-3.6,1.3-3.8h0ZM833.3,706.4c.9,0,2-.2,2.4-.2s.6.9.6,3.4c0,3.8-.2,4.1-3.4,4.1h-1.3v-7l1.8-.2h0ZM833,608.7c.8,0,1.8-.2,2.1-.2s.6.3.6.8-.5.9-1.5,1.2c-2.3.5-2.8.3-2.8-.6s.4-1,1.6-1.1h0ZM831.5,618.3l1.6-.2c3.4-.4,3.2-.7,3.2,3.2v3.4l-1.5.3c-2.2.4-3.3-.7-3.3-3.2v-3.5ZM831.6,636.5v-3.4c0,0,2-.3,2-.3,1,0,2-.3,2.3-.4.2,0,.3,1.5.3,3.4,0,3.8-.2,4.1-3.4,4.1h-1.3v-3.4h.1ZM834.1,797.1c-2.5,0-2.6,0-2.6-1.1s.2-1.2,2.5-1.4c1.3,0,2.5-.2,2.6-.2v1.3q0,1.4-2.6,1.4h0ZM833,787.2h-1.6v-7l1.8-.2c.9,0,2.1-.2,2.6-.2s.8.4.8,3.4-.2,4.1-3.6,4.1h0ZM836.7,768.5c0,3.4,0,3.5-1.1,3.5s-1.8,0-2.6.3l-1.5.3v-3.5q0-3.9,3.7-4.1h1.5v3.5h0ZM836.7,757.5h-1.8c-1,0-2.2,0-2.6.3-.7.2-.8-.2-.8-3.3s0-4,3.2-4.1h2v7h0ZM836.7,742.8h-5.2v-7.1h5.2v7.1ZM843.7,690.5l2.7-.3c1.5,0,3-.4,3.4-.4,1.8-.4,1.9-.3,1.9,3.5s0,3.8-1.1,3.8-2.4,0-4,.3l-2.9.3v-7.2h0ZM851.8,704.6v3.5c0,2.5-.2,3.5-.6,3.6-.3,0-2,0-3.8.4l-3.2.3v-7.3l2-.2c1.1,0,2.8-.2,3.8-.2h1.8ZM848.2,719.6c1,0,2.3-.2,2.7-.2.7,0,.8.4.8,3.7v3.8h-2c-1.1,0-2.8,0-3.8.3l-1.8.3v-3.6c0-4,0-3.9,4-4.2h0ZM850,741.6c-1,0-2.7.3-3.8.3h-2v-7l1.8-.2c.9,0,2.6-.2,3.8-.2h2v6.8l-1.7.3h0ZM851.8,752.7v3.8h-2.3c-1.3,0-3,0-3.8.3l-1.5.3v-7.6l3-.2c1.6,0,3.3-.2,3.8-.2s.8.4.8,3.7h0ZM852.2,796.6h-4c-3.9,0-4,0-4-1.1s.6-1.6,4.9-1.7h3.2v2.8h-.1ZM852.2,786.2h-8v-7l3.2-.2c1.7,0,3.5-.2,4-.2s.8.4.8,3.7v3.8h0ZM852.2,771l-2.5.3c-1.4,0-3.2.3-4,.3h-1.6v-7l1.6-.2c.8,0,2.6-.2,4-.2h2.5v6.8h0ZM858.8,632.7c0-2,0-3.6,0-3.6,0,0,6.6-1.1,7.5-1.3.2,0,.3,1.7.3,3.7v3.7l-1.7.3c-1,0-2.8.4-4,.6l-2.3.3v-3.6h.1ZM867.2,794.4v1.6c0,0-3.8,0-3.8,0h-3.7c0,0,0-1.3,0-1.3,0-1.5.4-1.7,5.6-1.8,1.3,0,2,.5,1.9,1.4ZM859.7,770.8l.3-7.5,7.1-.5v3.5c.2,1.9.2,3.5,0,3.6,0,0-1.8.3-3.8.5l-3.7.3h0ZM867.3,785.3h-2c-1.1,0-2.8,0-3.8.3l-1.8.3v-7.6l3-.2c1.6,0,3.3-.2,3.8-.2s.8.4.8,3.7v3.8h0ZM867.3,751.5c0,4,0,4.1-4.8,4.1h-2.7v-3.5c0-4-.2-3.8,5.1-4h2.5v3.4h0ZM867.3,740.5h-2.5c-1.4,0-3.2,0-4,.3l-1.5.3v-7.6l2.3-.2c1.2,0,3-.2,4-.2h1.7v7.5h0ZM867.3,725.4h-1.5c-.8,0-2.7,0-4.1.3l-2.5.3.3-7.5,2.6-.3c1.4,0,3.2-.3,3.9-.3h1.3v7.5ZM867.3,710.1l-2.5.3c-1.4,0-3.2.3-4,.3h-1.6v-7l2-.2c1.1,0,2.6-.3,3.4-.4.8,0,1.7-.2,2-.3.4,0,.6,1,.6,3.7v3.7h0ZM864.6,695.4c-1.5,0-3.3.4-4,.5l-1.3.3v-7.5l3.7-.4,3.6-.4.3,1.7c.2.9.3,2.5.3,3.6v2l-2.6.3h0ZM874.6,671.8l2.1-.3c1.2,0,2.9-.3,3.9-.3h1.7v3.7c0,3.6,0,3.8-1.1,3.8s-2.4,0-4,.3l-2.9.3.3-7.5ZM881.2,693.8c-.8,0-2.5,0-3.8.3l-2.5.3v-7.6l2.3-.2c1.2,0,2.9-.2,3.8-.2h1.5v7.5h-1.3ZM882.4,701.3v7.4l-2.9.3c-5,.5-4.7.8-4.7-3.4v-3.8l2.3-.2c1.2,0,2.9-.2,3.8-.2h1.5ZM874.9,720.7v-3.8l2.3-.2c1.2,0,2.9-.2,3.8-.2h1.5v7.3l-2.9.3c-5,.5-4.7.8-4.7-3.4h0ZM880.4,795.4c-4.8.6-5.1.5-5.1-1.4v-1.6l3-.2c1.6,0,3.3-.2,3.8-.2s.8.3.8,1.5,0,1.6-2.5,1.9ZM882.9,784.2l-1.7.3c-3.3.5-5.7.3-6-.5,0-.4-.3-2.1-.3-3.7v-3l3-.2c1.6,0,3.4-.2,4-.2q1,0,1,3.6v3.7h0ZM882.9,769.1l-2.5.3c-1.4,0-3.2.3-4,.3h-1.6v-7.5l2.7-.2c1.5,0,3.3-.2,4-.2h1.3v7.3h0ZM882.9,754l-2.9.3c-5.5.6-5.1.8-5.1-3.4v-3.8l2.5-.2c1.3,0,3.2-.2,4-.2h1.5v7.3h0ZM882.9,738.9l-2.9.3c-5.5.6-5.1.8-5.1-3.4v-3.8l2.5-.2c1.3,0,3.2-.2,4-.2h1.5v7.3h0ZM889.7,616.5c0,0-.2-1.8-.2-3.7,0-3.2,0-3.5,1.1-3.7,1.4-.3,5.6-1,6.4-1.1.4,0,.6,1,.6,3.7v3.8c-2.4.5-7.5,1.1-7.7,1h-.2ZM889.9,715.5l2.1-.2c1.1,0,2.9-.2,4.1-.2h2v7.4l-3.5.3c-2,.2-3.6.3-3.7.2,0,0-.3-1.8-.5-3.8l-.3-3.6h-.2ZM895.2,745.6h2.6c0,0,0,3.6,0,3.6v3.8s-1.8.2-3.8.4l-3.7.3v-3.8c0-4.3,0-4.2,4.7-4.3h.1ZM898.5,794.7h-2.9c-1.7,0-3.4,0-4,.3-1,.3-1.1,0-1.1-1.7v-1.9h8v3.3h0ZM906.7,794.3c-.5,0-.7-.5-.7-1.7s.2-1.7.7-1.7.7.5.7,1.7-.2,1.7-.7,1.7ZM906.7,783.4c-.6,0-.7-.8-.7-4s0-4,.7-4,.7.8.7,4,0,4-.7,4ZM906.7,767.8c-.6,0-.7-.7-.7-3.7s0-3.9,1.3-4.2v4c0,3.3,0,4-.7,4h.1ZM905.7,752.7s-.2-1.8-.2-4c0-3.7,0-4,.9-4s.9.3.9,3.7-.3,4.3-1.7,4.3h0ZM906.5,737.2c-.8,0-.9-.3-.9-3.7s.2-4.1,1.6-4.2c.2,0,.3,1.7.3,4,0,3.7,0,4-.9,4h0ZM906.5,721.6c-.8,0-.9-.3-.9-3.8s0-3.8.9-3.8.9.3.9,3.8,0,3.8-.9,3.8ZM906.5,706.5c-.8,0-.9-.3-.9-4s0-4,.9-4,.9.3.9,4,0,4-.9,4ZM906.5,690.9c-.8,0-.9-.3-.9-3.8s0-3.8.9-3.8.9.3.9,3.8,0,3.8-.9,3.8ZM905.5,671.9c0-3.8,0-4.1.9-4.1s1,.2.8,3.9c0,3.3-.3,3.9-.9,4.1-.8,0-.8-.3-.8-3.9ZM906.5,660.3c-.8,0-.9-.4-1.1-3.8,0-3.4,0-3.8.8-3.9.5,0,1-.2,1.1-.3v4c0,3.6,0,4-.9,4h.1ZM905.5,645.2c-.5,0-.6-7.2,0-7.7,0-.2.7-.3,1.2-.3.8,0,.8.4.8,3.7s-.3,4.3-1.9,4.3h0ZM906.3,629.6q-1.2,0-1.2-3.7c0-3.7,0-3.9,2-4.2.2,0,.3,1.7.3,4q0,4-1.2,4h.1ZM907,614c-.2,0-.8,0-1.2.3-.7.2-.8-.3-.8-3.8s0-4.1,1.2-4.1,1.2,0,1.2,3.8-.2,3.8-.4,3.8ZM906.3,598.9c-1,0-1.2-.2-1.2-1.4s.2-1.5,1.1-1.6c.6,0,1.1-.2,1.2-.3v1.6c0,1.5,0,1.7-1.2,1.7h.1Z"/>
  </g>
  <path class="cls-3" d="M963.6,203.9l12.3-6.3c6.7,8.8,14,20.7,16.8,28.9l-13.4,6.9c-2.3-7.9-9.1-20.4-15.6-29.6h0ZM967.9,167.7h46v14.5h-46v-14.5ZM1007.3,167.7h14.8s0,5.1,0,7c-1.9,56.4-3.6,76.8-9,83.6-3.6,4.9-7,6.3-12.4,7.2-4.7.6-12.5.6-20.1.3-.3-4.4-2.3-11-5.1-15.4,8.1.6,15.5.6,18.8.6s4.1-.4,5.5-2.2c4.2-4.4,6-26,7.6-78.1v-3.1h0ZM968.6,145.8l15.9,3.5c-5.4,19.1-14.2,37.9-23.9,49.5-3.1-2.6-9.9-7.2-13.7-9.3,9.7-10.1,17.5-26.9,21.8-43.6h0ZM923.6,146.1l13.6,4.7c-5.2,10-11.3,21.4-16.3,28.4l-10.4-4.2c4.6-7.7,10.1-20,13.1-28.9h0ZM938.9,161.2l12.9,5.4c-9.5,14.7-22,32.5-31.9,43.4l-9.3-4.7c9.9-11.5,21.5-30.3,28.3-44h0ZM903.9,176.4l7.2-10.6c6.9,5.9,14.8,14.1,18.2,19.7l-7.8,12c-3.2-6.1-11-15-17.5-21.1h-.1ZM935.7,192l10.9-4.7c5.1,8.6,10.2,19.7,11.9,27.1l-11.6,5.4c-1.5-7.3-6.3-18.9-11.1-27.8h-.1ZM903.7,202.4c11.9-.4,29.6-1.2,46.7-2v12.2c-16.1,1.3-32.8,2.4-45.4,3.2l-1.3-13.3h0ZM938,224.2l11.3-3.7c3.3,7.7,6.8,17.7,8.3,24.2l-12,4.4c-1.2-6.7-4.5-17-7.6-24.8h0ZM909.2,221.2l12.7,2.2c-1.3,12.3-4.1,25.1-7.8,33.3-2.7-1.7-8.4-4.4-11.6-5.6,3.7-7.6,5.8-18.9,6.8-29.8h-.1ZM924.1,209.2h13.7v57.1h-13.7v-57.1h0Z"/>
  <path class="cls-4" d="M927.8,68.3c-8.6-8.6-8.6-22.6,0-31.2s22.6-8.6,31.2,0l5.2,5.2,5.2-5.2c8.6-8.6,22.6-8.6,31.3,0l.3.3c8.6,8.6,8.6,22.6,0,31.3l-36.4,36.4-36.8-36.8Z" shape-rendering="crispEdges"/>
  <image class="cls-5" width="2945" height="1374" transform="translate(457.5 1003.5) scale(.5 .4)" xlink:href="0419-2-1.png"/>
</svg>